<?xml version="1.0" encoding="UTF-8" ?>
<!DOCTYPE svg PUBLIC "-//W3C//DTD SVG 1.1//EN" "http://www.w3.org/Graphics/SVG/1.1/DTD/svg11.dtd">
<svg width="500pt" height="500pt" viewBox="0 0 500 500" version="1.1" xmlns="http://www.w3.org/2000/svg">
<g id="#000000ff">
<path fill="#000000" opacity="1.00" d=" M 221.96 5.86 C 227.05 6.06 231.91 4.11 237.00 4.40 C 245.33 4.45 253.65 4.46 261.98 4.40 C 268.04 4.03 273.88 6.00 279.93 5.96 C 286.63 7.65 293.62 7.86 300.22 9.95 C 310.91 13.10 322.05 15.38 332.06 20.39 C 333.00 20.59 333.93 20.79 334.88 20.99 C 336.55 21.92 338.27 22.78 339.97 23.66 C 340.46 23.69 341.45 23.74 341.95 23.77 C 343.37 25.72 345.89 26.05 347.97 26.97 C 350.22 28.50 352.84 29.41 354.93 31.19 C 365.77 36.45 375.53 43.55 385.35 50.44 C 389.24 54.29 393.56 57.65 397.70 61.22 C 403.13 65.76 407.89 71.03 412.83 76.09 C 416.97 80.83 420.73 85.90 425.20 90.36 C 429.41 97.66 435.14 104.00 439.04 111.49 C 441.23 115.73 444.12 119.58 446.24 123.86 C 447.51 126.53 448.81 129.19 449.97 131.91 C 450.70 133.56 451.44 135.21 452.22 136.85 C 456.31 146.03 459.48 155.59 462.21 165.25 C 465.08 173.94 467.04 182.95 467.96 192.05 C 468.46 195.04 469.58 197.94 469.39 201.03 C 469.04 206.74 470.99 212.27 470.76 217.98 C 470.68 225.42 471.36 232.95 469.91 240.30 C 469.09 244.48 469.82 248.80 468.80 252.95 C 467.93 256.31 468.53 259.94 467.11 263.16 C 459.52 303.96 440.48 342.73 412.10 373.10 C 406.74 379.54 400.16 384.77 394.21 390.63 C 393.37 390.67 391.70 390.76 390.86 390.81 C 392.09 391.62 393.32 392.44 394.56 393.26 C 394.60 393.95 394.69 395.33 394.74 396.02 C 395.12 396.35 395.88 396.99 396.26 397.32 C 398.69 401.32 400.66 405.58 402.96 409.67 C 404.47 411.03 405.81 412.59 406.73 414.42 C 407.06 415.60 407.53 416.73 408.22 417.77 C 409.17 420.67 410.97 423.14 412.84 425.51 C 412.92 426.00 413.06 426.98 413.13 427.46 C 416.83 430.53 417.09 435.94 420.29 439.49 C 422.44 442.87 424.56 446.27 426.43 449.81 C 426.46 450.32 426.52 451.33 426.54 451.84 C 427.65 452.57 428.13 453.61 428.00 454.95 C 428.45 460.73 426.84 466.77 429.07 472.32 C 431.42 479.29 428.99 486.85 429.61 494.07 C 427.83 494.28 425.89 495.28 424.19 494.28 C 416.46 490.09 409.71 484.40 402.31 479.69 C 396.86 476.05 390.59 472.73 387.48 466.66 C 380.31 453.50 372.47 440.73 365.03 427.72 C 363.07 423.87 360.56 420.32 358.80 416.38 C 354.17 417.32 350.38 420.41 345.96 421.95 C 345.70 422.27 345.17 422.90 344.91 423.21 C 342.86 423.94 340.88 424.79 338.89 425.66 C 337.67 426.11 336.43 426.50 335.21 426.91 C 334.08 428.44 332.18 428.32 330.51 428.58 L 330.57 429.66 C 329.83 429.60 328.36 429.48 327.62 429.42 C 327.31 429.82 326.68 430.64 326.37 431.05 C 324.85 431.32 323.33 431.62 321.95 432.34 C 320.97 432.45 319.98 432.57 319.01 432.70 C 316.34 434.59 313.04 435.12 309.92 435.79 C 300.50 438.97 290.57 440.23 280.83 442.08 C 271.20 442.71 261.67 444.86 251.98 444.49 C 246.69 444.42 241.36 444.69 236.10 443.84 C 222.36 442.18 208.56 440.53 195.19 436.82 C 190.78 435.66 185.92 435.23 182.12 432.50 C 181.09 432.44 180.06 432.39 179.03 432.34 C 177.09 429.72 173.32 430.14 170.47 429.23 C 169.99 428.80 169.03 427.93 168.54 427.50 C 168.01 427.56 166.95 427.68 166.42 427.74 L 166.40 426.31 C 165.15 426.35 163.91 426.39 162.66 426.45 L 162.66 425.49 C 159.86 424.83 157.33 423.45 154.96 421.89 C 151.74 420.27 148.46 418.78 145.47 416.76 C 144.43 416.68 143.40 416.60 142.38 416.54 C 139.21 422.62 135.19 428.23 132.34 434.48 C 129.15 439.59 126.21 444.85 123.27 450.10 C 121.31 453.81 118.55 457.02 116.78 460.83 C 114.70 465.33 111.94 469.47 108.82 473.31 C 103.68 477.13 97.80 479.98 93.14 484.43 C 92.46 483.90 91.79 483.37 91.13 482.84 C 96.10 478.39 102.05 475.20 107.48 471.36 C 112.94 465.12 115.43 457.01 120.55 450.54 C 123.86 443.70 128.26 437.44 131.68 430.65 C 134.19 426.24 136.64 421.78 139.42 417.54 C 142.87 409.11 148.19 401.62 152.55 393.66 C 156.80 385.66 161.84 378.12 166.04 370.10 C 167.75 367.20 169.26 364.03 171.78 361.73 C 173.56 360.91 175.69 361.59 177.35 362.46 C 195.52 371.98 215.55 377.91 235.96 379.86 C 251.01 379.80 266.30 381.06 281.02 377.29 C 289.53 376.03 297.73 373.33 305.83 370.50 C 310.14 368.33 314.78 366.92 319.04 364.62 C 322.48 363.01 325.98 360.66 329.96 361.54 C 341.70 382.65 354.50 403.21 365.74 424.57 C 369.22 429.50 371.46 435.16 374.91 440.11 C 380.37 449.24 385.51 458.56 390.84 467.76 C 394.42 472.06 399.42 474.84 403.97 477.99 C 410.67 482.12 416.64 487.36 423.59 491.11 C 424.79 491.83 426.22 491.85 427.57 492.14 C 427.20 487.41 428.14 482.73 428.04 478.02 C 428.12 474.18 425.44 470.88 425.78 467.00 C 425.52 462.32 427.15 457.21 424.88 452.86 C 424.09 451.05 423.35 449.24 422.68 447.41 C 420.34 443.99 418.07 440.52 416.04 436.91 C 414.58 433.99 413.40 430.86 411.12 428.45 C 411.02 427.99 410.83 427.06 410.73 426.59 C 408.26 423.92 406.82 420.54 405.13 417.37 C 405.08 416.87 404.98 415.88 404.93 415.39 C 402.67 412.50 400.02 409.84 398.59 406.40 C 396.91 402.31 393.93 398.96 392.11 394.96 C 391.16 393.94 390.18 392.95 389.45 391.77 C 379.61 374.57 369.61 357.45 359.75 340.26 C 359.27 339.03 359.31 337.69 359.13 336.42 C 374.12 322.72 385.42 305.32 393.91 286.97 C 399.62 273.21 404.04 258.84 405.95 244.06 C 406.22 238.17 407.40 232.38 407.72 226.51 C 395.17 226.64 382.63 226.57 370.09 226.58 C 369.53 231.33 369.87 236.13 369.38 240.87 C 367.74 247.13 367.43 253.73 364.83 259.72 C 359.91 275.24 352.23 290.15 341.04 302.08 C 340.34 302.09 338.95 302.12 338.25 302.13 C 334.78 297.58 332.52 292.29 329.36 287.54 C 321.73 274.18 314.03 260.87 306.29 247.58 C 303.71 243.14 301.58 238.41 298.41 234.34 C 299.65 227.26 307.85 224.73 310.39 218.25 C 310.35 201.48 310.38 184.71 310.41 167.94 C 310.93 159.19 305.74 150.50 297.52 147.25 C 290.95 145.13 283.95 146.33 277.18 146.12 C 275.96 144.61 274.26 143.14 274.52 140.99 C 274.57 128.71 274.49 116.43 274.59 104.16 C 258.71 104.14 242.82 104.13 226.94 104.20 C 226.75 116.47 226.97 128.73 226.90 141.00 C 226.88 142.91 225.72 144.52 224.90 146.17 C 218.39 146.36 211.70 145.30 205.30 146.81 C 204.86 146.93 203.97 147.15 203.53 147.27 C 196.56 150.27 190.46 157.08 190.85 165.07 C 190.81 182.04 190.92 199.01 190.83 215.98 C 190.25 222.36 197.02 225.30 200.42 229.64 C 202.55 231.38 201.99 234.54 200.60 236.57 C 174.61 281.55 148.61 326.54 122.75 371.58 C 117.61 379.03 114.60 387.94 108.24 394.52 C 108.14 395.08 107.96 396.19 107.86 396.74 C 104.49 401.82 100.67 406.66 98.43 412.38 C 94.50 418.33 92.13 425.24 87.04 430.39 C 87.00 430.89 86.92 431.88 86.88 432.38 C 83.55 438.21 80.06 443.96 76.40 449.58 C 74.37 456.80 74.66 464.42 74.18 471.85 C 72.25 474.52 73.57 477.86 73.32 480.87 C 73.08 484.99 72.94 489.11 73.24 493.23 C 75.04 492.87 76.77 492.27 78.26 491.19 C 78.74 491.08 79.68 490.87 80.16 490.76 C 81.79 488.33 84.47 487.00 86.57 485.04 C 87.37 485.00 88.96 484.91 89.76 484.87 L 89.60 483.30 C 90.37 483.94 91.13 484.60 91.89 485.27 C 91.31 485.98 90.16 487.40 89.59 488.11 C 89.16 487.71 88.32 486.91 87.89 486.50 C 87.61 487.06 87.04 488.16 86.75 488.72 C 85.54 489.27 84.33 489.84 83.12 490.42 C 82.33 491.71 81.50 492.98 80.67 494.26 C 80.28 493.86 79.50 493.06 79.11 492.66 C 78.75 493.25 78.04 494.42 77.68 495.01 C 76.09 495.23 74.50 495.45 72.91 495.66 C 72.49 495.17 71.64 494.17 71.22 493.68 C 70.45 487.10 71.42 480.51 71.12 473.93 C 73.42 465.68 71.79 456.83 74.33 448.60 C 77.04 445.05 78.80 440.89 81.43 437.28 C 82.46 435.91 83.08 434.32 83.68 432.74 C 84.51 431.78 84.96 430.62 85.24 429.40 C 86.27 427.60 87.58 425.98 89.05 424.53 C 89.87 423.09 90.68 421.64 91.36 420.14 C 93.44 415.42 97.22 411.55 98.43 406.43 C 99.27 405.46 100.12 404.49 100.98 403.54 C 101.00 403.05 101.04 402.06 101.07 401.57 C 103.62 400.45 103.70 397.27 105.86 395.74 C 105.93 395.20 106.08 394.10 106.15 393.55 C 106.56 392.93 107.38 391.69 107.79 391.06 C 103.84 388.89 100.58 385.72 97.66 382.32 C 93.23 377.11 87.45 373.20 83.59 367.47 C 78.33 361.60 73.96 355.03 69.01 348.91 C 66.06 344.60 63.54 340.03 60.70 335.65 C 56.10 328.42 53.10 320.33 48.75 312.97 C 48.60 312.45 48.30 311.41 48.15 310.90 C 44.88 303.88 42.37 296.52 40.16 289.11 C 35.21 274.80 33.03 259.70 31.06 244.74 C 28.27 215.04 32.04 184.90 40.93 156.48 C 41.36 155.73 41.79 154.98 42.22 154.24 C 42.57 151.99 43.23 149.82 44.00 147.69 C 45.47 144.42 46.50 140.98 48.22 137.83 C 48.34 137.33 48.58 136.35 48.70 135.86 C 53.17 128.02 56.22 119.38 61.63 112.08 C 61.67 111.42 61.74 110.10 61.77 109.44 C 62.24 109.50 63.18 109.61 63.65 109.67 C 63.59 109.15 63.46 108.11 63.40 107.59 L 64.25 107.32 C 70.04 97.76 77.06 89.02 84.16 80.41 C 90.68 72.86 98.04 66.09 105.13 59.09 C 111.71 53.85 118.22 48.52 124.95 43.45 C 125.40 43.54 126.29 43.71 126.74 43.79 C 126.65 43.29 126.47 42.27 126.38 41.77 C 126.98 41.66 128.19 41.43 128.79 41.32 C 133.59 37.89 138.65 34.85 143.88 32.14 C 145.18 31.39 146.47 30.64 147.73 29.84 C 148.72 28.90 150.01 28.54 151.32 28.25 L 151.46 27.34 C 151.95 27.32 152.92 27.30 153.41 27.29 C 154.55 26.53 155.70 25.80 156.86 25.07 C 160.90 23.51 164.85 21.69 168.91 20.17 C 170.60 19.22 172.43 18.55 174.31 18.06 C 182.79 14.88 191.45 12.08 200.35 10.36 C 201.15 9.85 201.95 9.35 202.76 8.84 C 209.24 8.41 215.59 6.99 221.96 5.86 Z" />
<path fill="#000000" opacity="1.00" d=" M 219.44 202.83 C 213.11 185.14 226.87 164.58 244.96 161.71 C 250.63 161.36 256.44 161.22 261.86 163.20 C 268.35 165.76 273.67 170.53 277.64 176.19 C 283.04 184.58 284.11 195.49 280.64 204.82 C 275.82 217.89 261.79 226.83 247.96 225.93 C 235.07 224.50 223.23 215.38 219.44 202.83 Z" />
<path fill="#000000" opacity="1.00" d=" M 193.95 321.92 C 205.70 301.82 217.12 281.52 229.02 261.50 C 229.74 261.56 231.20 261.66 231.93 261.72 C 237.54 266.21 241.98 273.77 250.02 273.73 C 258.24 274.42 262.89 266.68 268.19 261.82 C 269.03 261.77 270.72 261.65 271.56 261.59 C 273.85 264.68 275.93 267.92 277.74 271.32 C 286.25 286.40 295.01 301.32 303.64 316.33 C 305.89 320.25 308.92 324.00 309.32 328.68 C 289.88 339.78 267.27 344.91 244.95 343.89 C 238.72 343.45 232.39 343.47 226.37 341.60 C 214.74 339.60 203.66 335.24 193.33 329.60 C 190.24 327.86 192.71 324.10 193.95 321.92 Z" />
</g>
</svg>
