<?xml version="1.0" encoding="UTF-8" ?>
<!DOCTYPE svg PUBLIC "-//W3C//DTD SVG 1.1//EN" "http://www.w3.org/Graphics/SVG/1.1/DTD/svg11.dtd">
<svg width="128pt" height="128pt" viewBox="0 0 128 128" version="1.1" xmlns="http://www.w3.org/2000/svg">
<g id="#000000ff">
<path fill="#000000" opacity="1.00" d=" M 54.42 6.63 C 60.98 4.97 67.85 5.15 74.39 6.79 C 90.18 9.64 104.56 19.35 113.04 32.98 C 118.85 41.90 121.44 52.48 122.31 62.99 C 121.91 78.68 115.86 94.44 104.39 105.37 C 93.46 116.01 78.23 122.15 62.95 121.72 C 44.08 121.61 25.72 111.36 15.50 95.54 C 9.27 86.22 6.34 75.06 5.65 63.98 C 6.31 52.89 9.14 41.69 15.34 32.35 C 24.01 18.80 38.56 9.29 54.42 6.63 M 62.67 29.67 C 61.45 30.88 60.85 32.54 60.16 34.07 C 52.28 53.45 44.07 72.70 36.14 92.06 C 39.01 92.18 41.88 92.10 44.74 91.85 C 48.11 83.58 51.16 75.16 54.77 66.99 C 64.12 74.73 73.64 82.26 83.02 89.95 C 84.91 91.36 87.27 93.67 89.75 92.08 C 92.31 91.10 92.07 87.90 91.13 85.84 C 84.60 70.08 77.99 54.34 71.50 38.56 C 70.29 35.78 69.41 32.82 67.73 30.27 C 66.64 28.60 64.14 28.40 62.67 29.67 Z" />
<path fill="#000000" opacity="1.00" d=" M 64.41 42.29 C 64.69 42.30 65.26 42.32 65.55 42.33 C 70.03 54.16 75.26 65.70 79.52 77.61 C 71.79 72.24 64.48 66.25 57.24 60.23 C 59.79 54.31 62.05 48.29 64.41 42.29 Z" />
</g>
</svg>
