<?xml version="1.0" encoding="UTF-8" ?>
<!DOCTYPE svg PUBLIC "-//W3C//DTD SVG 1.1//EN" "http://www.w3.org/Graphics/SVG/1.1/DTD/svg11.dtd">
<svg width="256pt" height="256pt" viewBox="0 0 256 256" version="1.1" xmlns="http://www.w3.org/2000/svg">
<g id="#000000ff">
<path fill="#000000" opacity="1.00" d=" M 136.04 13.09 C 137.24 11.28 138.06 9.15 139.79 7.75 C 163.69 47.21 187.51 87.00 205.40 129.63 C 210.02 140.93 214.08 152.54 216.16 164.61 C 217.94 171.69 216.31 178.96 215.01 185.97 C 212.11 200.42 205.05 214.09 194.58 224.50 C 176.31 243.81 147.31 252.46 121.53 245.70 C 100.99 240.95 82.85 227.07 72.58 208.70 C 74.05 208.26 75.56 208.51 77.01 208.85 C 90.32 210.75 104.22 207.10 115.04 199.15 C 134.72 185.04 144.34 158.30 137.94 134.93 C 131.13 109.26 118.82 85.55 107.14 61.86 C 116.55 45.48 126.04 29.13 136.04 13.09 Z" />
<path fill="#000000" opacity="1.00" d=" M 53.99 108.12 C 63.64 88.97 74.21 70.27 85.78 52.22 C 88.45 57.13 91.63 61.74 94.34 66.63 C 104.00 85.23 113.32 104.08 120.54 123.79 C 122.53 129.76 124.69 135.70 125.82 141.92 C 128.10 155.27 124.40 169.50 115.87 180.03 C 108.13 190.08 95.65 196.09 83.00 196.17 C 71.69 195.41 60.63 190.49 52.82 182.21 C 44.07 173.90 39.82 161.80 39.08 149.97 C 41.09 135.17 47.71 121.51 53.99 108.12 Z" />
</g>
</svg>
