<?xml version="1.0" encoding="UTF-8" ?>
<!DOCTYPE svg PUBLIC "-//W3C//DTD SVG 1.1//EN" "http://www.w3.org/Graphics/SVG/1.1/DTD/svg11.dtd">
<svg width="128pt" height="128pt" viewBox="0 0 128 128" version="1.1" xmlns="http://www.w3.org/2000/svg">
<g id="#000000ff">
<path fill="#000000" opacity="1.00" d=" M 16.30 30.33 C 20.71 19.83 32.23 14.23 43.09 13.40 C 52.09 13.31 61.10 13.41 70.10 13.34 C 72.28 12.84 73.64 14.49 74.81 16.02 C 72.23 18.76 68.98 20.69 65.97 22.91 C 65.16 22.90 63.55 22.89 62.74 22.88 C 66.89 28.41 68.93 35.66 67.23 42.47 C 65.76 47.55 62.62 52.19 58.27 55.24 C 56.17 56.94 53.30 59.00 53.64 62.04 C 56.09 67.75 62.54 69.96 66.37 74.52 C 71.37 80.03 73.03 88.16 71.26 95.30 C 69.95 100.80 65.86 105.14 61.38 108.33 C 52.52 114.17 41.32 114.70 31.12 113.20 C 22.84 111.66 13.63 108.37 9.56 100.38 C 6.52 94.54 8.85 87.54 12.71 82.68 C 19.26 74.54 30.01 71.06 40.17 70.78 C 38.73 67.93 37.81 64.72 39.03 61.61 C 31.75 61.13 24.26 58.31 19.71 52.36 C 14.96 46.27 12.82 37.54 16.30 30.33 M 35.48 22.77 C 31.47 24.31 29.40 28.80 29.37 32.89 C 28.78 39.26 31.13 45.80 35.56 50.39 C 38.61 53.24 43.35 55.63 47.41 53.38 C 51.93 51.18 53.24 45.71 53.28 41.10 C 52.90 35.14 50.62 29.02 45.91 25.14 C 43.03 22.90 39.08 21.28 35.48 22.77 M 36.39 78.56 C 30.63 80.03 24.20 83.55 23.09 89.95 C 22.11 96.63 27.76 102.38 33.81 104.14 C 40.57 105.84 48.10 105.41 54.40 102.30 C 60.80 99.02 62.49 88.89 56.63 84.31 C 53.19 81.70 49.72 78.29 45.15 78.12 C 42.23 77.98 39.26 77.92 36.39 78.56 Z" />
<path fill="#000000" opacity="1.00" d=" M 91.50 37.42 C 92.25 34.69 95.77 35.50 97.88 35.48 C 99.44 35.38 100.53 36.67 100.53 38.17 C 100.78 43.65 100.56 49.14 100.54 54.63 C 106.34 54.84 112.14 54.45 117.93 54.79 C 121.13 56.30 119.97 60.98 118.73 63.56 C 112.68 63.45 106.63 63.52 100.57 63.50 C 100.60 68.68 100.65 73.85 100.63 79.03 C 101.40 83.84 93.91 84.56 91.60 81.59 C 91.04 75.60 91.54 69.53 91.43 63.50 C 85.44 63.37 79.42 63.75 73.45 63.37 C 71.38 61.52 71.23 56.16 74.03 54.79 C 79.82 54.46 85.64 54.81 91.44 54.66 C 91.48 48.91 91.17 43.15 91.50 37.42 Z" />
</g>
</svg>
