<?xml version="1.0" encoding="UTF-8" ?>
<!DOCTYPE svg PUBLIC "-//W3C//DTD SVG 1.1//EN" "http://www.w3.org/Graphics/SVG/1.1/DTD/svg11.dtd">
<svg width="128pt" height="128pt" viewBox="0 0 128 128" version="1.1" xmlns="http://www.w3.org/2000/svg">
<g id="#000000ff">
<path fill="#000000" opacity="1.00" d=" M 42.93 8.88 C 57.63 3.48 74.37 3.88 88.63 10.42 C 106.60 18.17 119.93 35.40 123.09 54.69 C 116.45 54.83 109.81 54.70 103.17 54.77 C 97.76 45.20 92.00 35.84 86.54 26.29 C 75.46 26.11 64.36 26.27 53.27 26.22 C 49.70 20.51 46.53 14.57 42.93 8.88 Z" />
<path fill="#000000" opacity="1.00" d=" M 4.81 56.05 C 6.80 41.22 14.81 27.44 26.52 18.17 C 29.99 23.60 33.20 29.19 36.45 34.76 C 30.44 44.56 24.82 54.59 18.96 64.48 C 26.46 77.24 33.90 90.04 41.42 102.79 C 56.47 102.87 71.52 102.83 86.56 102.81 C 92.45 92.97 98.14 83.02 104.03 73.19 C 110.39 73.40 116.76 73.15 123.13 73.34 C 120.53 87.98 112.53 101.59 100.59 110.53 C 87.27 120.77 69.47 125.10 52.95 121.85 C 37.63 119.10 23.65 110.04 14.70 97.32 C 6.47 85.41 2.73 70.42 4.81 56.05 Z" />
<path fill="#000000" opacity="1.00" d=" M 59.52 43.79 C 70.30 41.23 82.06 48.52 84.80 59.20 C 87.28 67.91 83.03 77.69 75.37 82.32 C 69.47 86.10 61.67 86.73 55.32 83.73 C 47.40 80.30 41.88 71.75 42.59 63.06 C 43.14 53.80 50.53 45.70 59.52 43.79 Z" />
</g>
</svg>
