<?xml version="1.0" encoding="UTF-8" ?>
<!DOCTYPE svg PUBLIC "-//W3C//DTD SVG 1.1//EN" "http://www.w3.org/Graphics/SVG/1.1/DTD/svg11.dtd">
<svg width="512pt" height="512pt" viewBox="0 0 512 512" version="1.1" xmlns="http://www.w3.org/2000/svg">
<g id="#000000ff">
<path fill="#000000" opacity="1.00" d=" M 241.60 30.03 C 282.33 25.90 324.54 38.70 356.06 64.87 C 377.71 82.75 394.51 106.47 403.80 133.00 C 412.98 158.98 415.53 187.53 409.84 214.55 C 404.54 239.44 390.55 261.79 372.60 279.56 C 357.81 294.89 340.12 306.94 324.39 321.22 C 312.65 331.91 299.74 342.52 293.28 357.44 C 291.22 361.64 290.98 366.59 288.15 370.43 C 283.71 376.87 275.24 377.73 268.07 377.26 C 258.35 377.22 248.63 377.31 238.91 377.23 C 232.24 377.13 225.48 373.29 222.91 366.96 C 220.96 363.26 221.40 358.94 222.35 355.02 C 224.96 338.74 231.34 323.12 240.59 309.49 C 252.80 291.08 269.59 276.42 286.49 262.47 C 299.65 251.31 313.99 241.43 325.75 228.72 C 333.91 220.12 340.41 209.53 342.50 197.73 C 345.47 179.40 341.80 160.17 333.06 143.84 C 323.65 126.36 307.97 112.34 289.50 105.04 C 272.28 98.18 252.90 96.83 234.93 101.39 C 204.88 108.39 179.88 133.04 172.43 162.97 C 169.22 174.68 169.14 186.92 169.66 198.96 C 170.26 205.77 165.80 212.67 159.28 214.79 C 147.26 218.54 135.26 222.34 123.27 226.17 C 117.54 227.69 111.21 226.04 107.04 221.81 C 101.55 216.81 101.25 208.93 100.47 202.06 C 100.31 191.16 99.78 180.18 100.98 169.34 C 103.03 148.93 109.26 128.98 118.99 110.94 C 132.33 86.24 152.53 65.31 176.68 51.01 C 196.42 39.36 218.78 32.13 241.60 30.03 Z" />
<path fill="#000000" opacity="1.00" d=" M 235.54 412.78 C 246.66 411.86 257.88 412.64 269.04 412.37 C 275.05 412.17 282.09 412.44 286.37 417.32 C 290.16 420.74 290.90 426.09 291.31 430.91 C 291.31 441.59 291.31 452.28 291.31 462.98 C 290.90 467.62 290.26 472.77 286.76 476.22 C 283.37 480.18 277.95 481.64 272.92 481.67 C 261.59 481.62 250.26 481.67 238.93 481.64 C 234.48 481.37 229.76 480.05 226.65 476.65 C 222.42 472.66 221.77 466.44 221.66 460.95 C 221.92 449.96 221.28 438.93 221.99 427.97 C 222.35 420.55 228.00 413.64 235.54 412.78 Z" />
</g>
</svg>
