<?xml version="1.0" encoding="UTF-8" ?>
<!DOCTYPE svg PUBLIC "-//W3C//DTD SVG 1.1//EN" "http://www.w3.org/Graphics/SVG/1.1/DTD/svg11.dtd">
<svg width="400pt" height="400pt" viewBox="0 0 400 400" version="1.1" xmlns="http://www.w3.org/2000/svg">
<g id="#000000ff">
<path fill="#000000" opacity="1.00" d=" M 165.63 16.81 C 172.40 15.41 180.06 16.94 185.07 21.93 C 191.29 28.12 197.47 34.36 203.66 40.59 L 204.05 40.67 C 206.15 43.26 208.63 45.49 211.02 47.82 C 211.44 48.04 212.28 48.50 212.70 48.73 L 212.35 49.47 C 212.79 49.75 213.69 50.32 214.13 50.61 C 214.51 50.91 215.27 51.51 215.65 51.82 L 215.35 52.46 C 220.72 56.03 224.86 61.02 229.48 65.45 C 236.17 71.88 242.43 78.75 249.39 84.90 L 249.29 85.13 C 249.68 85.53 250.45 86.31 250.84 86.70 L 251.05 86.62 C 255.24 91.56 260.17 95.77 265.04 100.02 C 266.09 101.12 267.74 100.70 269.10 100.86 C 279.72 100.82 290.33 100.84 300.95 100.83 C 301.20 112.50 300.46 124.24 301.31 135.87 C 305.43 140.12 310.01 143.94 313.86 148.48 L 314.19 148.27 C 314.49 148.67 315.08 149.47 315.38 149.86 C 326.50 159.71 336.38 170.89 347.37 180.87 L 347.52 181.28 C 347.83 181.59 348.45 182.20 348.75 182.51 L 349.20 182.54 C 349.57 183.05 350.30 184.08 350.66 184.59 L 351.16 184.64 C 351.47 184.94 352.11 185.53 352.43 185.83 L 352.35 186.55 L 353.38 186.48 L 353.41 187.50 L 354.17 187.55 C 354.53 188.01 355.25 188.94 355.61 189.40 C 357.85 191.26 359.94 193.28 361.98 195.36 L 362.68 195.40 L 362.56 196.12 C 362.88 196.46 363.53 197.15 363.85 197.50 L 364.41 197.40 C 367.36 200.56 370.39 204.33 369.84 208.97 C 370.14 213.99 366.67 218.14 362.67 220.71 C 342.14 235.15 321.68 249.71 301.03 263.99 C 300.86 276.31 300.97 288.64 300.97 300.97 C 284.65 300.92 268.34 300.98 252.02 300.93 C 250.04 300.83 248.03 301.17 246.47 302.47 C 211.33 327.31 176.07 351.98 140.92 376.80 C 134.10 381.78 125.10 383.92 116.87 381.68 C 106.21 379.17 97.50 369.85 95.75 359.02 C 94.12 350.19 97.02 340.63 103.39 334.26 C 107.85 329.47 114.19 327.29 119.72 324.03 C 133.57 316.64 147.12 308.65 161.18 301.67 C 159.47 301.18 157.71 300.85 155.92 300.91 C 137.56 300.99 119.20 300.93 100.83 300.95 C 100.84 259.65 100.82 218.34 100.84 177.04 C 100.83 174.99 100.76 172.95 100.65 170.90 C 90.03 166.75 79.54 162.27 69.01 157.92 C 58.90 153.10 46.68 151.00 39.29 141.88 C 30.81 131.90 29.63 116.54 36.55 105.40 C 38.68 101.77 41.71 98.73 45.08 96.24 C 69.51 79.83 93.95 63.43 118.41 47.07 C 125.51 42.36 132.53 37.53 139.69 32.91 C 144.10 29.53 148.87 26.66 153.44 23.52 C 157.33 21.01 161.01 17.86 165.63 16.81 M 144.66 90.69 C 141.30 94.05 137.18 96.67 134.45 100.63 C 159.78 100.86 185.12 100.77 210.46 100.68 C 197.81 88.96 184.25 78.23 171.36 66.77 C 162.27 74.52 153.60 82.75 144.66 90.69 M 142.91 125.66 C 142.95 136.64 142.87 147.62 142.95 158.60 C 151.91 158.57 160.86 158.59 169.82 158.59 C 169.83 155.86 169.83 153.14 169.83 150.42 C 163.99 150.41 158.16 150.42 152.32 150.42 C 152.34 148.89 152.36 147.36 152.38 145.83 C 157.53 145.84 162.68 145.86 167.83 145.81 C 167.83 143.27 167.83 140.73 167.82 138.18 C 162.67 138.14 157.51 138.16 152.36 138.16 C 152.35 136.63 152.34 135.11 152.33 133.58 C 158.08 133.59 163.83 133.58 169.58 133.58 C 169.58 130.94 169.58 128.30 169.58 125.65 C 160.69 125.67 151.80 125.66 142.91 125.66 M 171.17 125.65 C 171.16 128.37 171.16 131.10 171.17 133.82 C 174.42 133.84 177.66 133.84 180.91 133.84 C 180.91 142.09 180.89 150.35 180.92 158.60 C 184.06 158.59 187.21 158.59 190.36 158.59 C 190.34 150.34 190.34 142.09 190.35 133.85 C 193.59 133.84 196.83 133.84 200.07 133.85 C 200.09 131.13 200.10 128.41 200.13 125.69 C 190.48 125.61 180.83 125.68 171.17 125.65 M 131.89 125.66 C 131.88 132.12 131.96 138.59 131.90 145.06 C 131.86 147.07 131.69 149.57 129.65 150.61 C 126.98 151.33 124.93 149.27 122.99 147.84 C 120.97 149.71 118.93 151.57 116.91 153.45 C 120.90 159.08 128.86 160.60 135.01 157.94 C 138.88 156.23 141.09 152.05 141.18 147.93 C 141.58 140.51 141.23 133.07 141.35 125.65 C 138.20 125.65 135.04 125.66 131.89 125.66 M 260.99 167.02 C 255.67 169.61 254.00 177.59 257.96 181.99 C 262.00 186.11 268.36 185.49 273.08 188.27 C 275.19 189.32 272.37 191.68 270.93 191.41 C 266.73 191.85 262.88 189.77 259.50 187.52 C 257.70 189.53 255.94 191.57 254.17 193.61 C 254.01 184.37 254.13 175.14 254.10 165.90 C 250.95 165.91 247.80 165.91 244.65 165.89 C 244.65 171.37 244.67 176.85 244.63 182.33 C 240.34 176.88 236.12 171.38 231.85 165.91 C 228.86 165.91 225.88 165.90 222.90 165.90 C 222.91 176.88 222.91 187.86 222.90 198.84 C 226.04 198.84 229.18 198.84 232.32 198.86 C 232.36 193.08 232.36 187.30 232.30 181.52 C 236.92 187.24 241.32 193.12 245.92 198.85 C 248.64 198.85 251.36 198.84 254.08 198.85 C 254.07 197.23 254.06 195.61 254.04 194.00 C 260.41 198.95 269.33 201.03 276.98 198.08 C 282.93 195.93 285.22 187.51 281.20 182.68 C 277.07 178.26 270.37 178.99 265.48 176.04 C 265.58 175.50 265.79 174.44 265.90 173.90 C 269.88 171.83 274.17 174.65 277.75 176.36 C 279.09 174.51 280.51 172.70 281.65 170.71 C 282.86 169.35 280.75 168.51 279.85 167.95 C 274.19 164.90 266.84 164.01 260.99 167.02 M 117.90 165.90 C 117.91 176.88 117.91 187.86 117.90 198.84 C 125.44 198.56 133.08 199.50 140.54 198.22 C 144.98 197.36 147.50 193.17 148.31 189.02 C 148.38 192.28 148.42 195.56 148.44 198.83 C 151.66 198.84 154.88 198.84 158.10 198.85 C 158.09 195.52 158.09 192.20 158.09 188.88 C 158.90 188.84 160.50 188.77 161.30 188.73 C 163.81 191.90 165.65 195.55 168.26 198.64 C 173.49 199.15 178.77 198.70 184.02 198.85 C 184.78 196.93 185.52 195.02 186.26 193.10 C 190.40 193.09 194.54 193.09 198.68 193.11 C 199.42 195.02 200.17 196.93 200.92 198.84 C 207.64 198.90 214.37 198.87 221.10 198.84 C 221.09 187.85 221.09 176.87 221.10 165.88 C 217.93 165.89 214.77 165.91 211.61 166.05 C 211.73 175.55 211.58 185.05 211.70 194.55 C 209.43 195.32 208.61 192.72 207.89 191.12 C 204.36 182.61 200.74 174.14 197.16 165.65 C 194.11 165.65 191.05 165.66 187.99 165.67 C 183.99 175.13 180.06 184.63 176.00 194.06 C 174.48 191.91 172.98 189.75 171.48 187.58 C 175.21 185.37 178.29 181.60 177.88 177.03 C 178.31 171.41 173.55 166.54 168.09 166.12 C 161.54 165.61 154.95 166.02 148.39 165.95 C 148.39 173.96 148.48 181.98 148.33 190.00 C 147.50 186.35 145.71 182.94 142.05 181.57 C 143.16 180.51 144.35 179.50 145.25 178.24 C 146.73 175.79 145.88 172.84 145.59 170.19 C 145.40 169.94 145.03 169.44 144.84 169.18 C 142.78 167.82 140.70 166.15 138.12 166.06 C 131.39 165.66 124.64 166.03 117.90 165.90 M 300.97 177.83 C 300.84 193.51 300.91 209.19 300.93 224.87 C 312.15 218.97 323.11 212.58 334.36 206.74 C 332.82 204.92 331.10 203.24 329.24 201.75 C 319.71 193.91 310.69 185.44 300.97 177.83 M 117.90 263.16 C 117.91 267.47 117.91 271.78 117.90 276.10 C 143.06 276.05 168.22 276.18 193.38 276.03 C 193.34 271.74 193.33 267.46 193.35 263.17 C 168.20 263.14 143.05 263.16 117.90 263.16 Z" />
<path fill="#000000" opacity="1.00" d=" M 127.36 173.56 C 130.45 173.84 134.06 172.75 136.69 174.87 C 137.68 180.17 130.48 178.60 127.33 178.99 C 127.33 177.18 127.34 175.37 127.36 173.56 Z" />
<path fill="#000000" opacity="1.00" d=" M 158.07 174.04 C 161.62 174.37 168.32 172.59 168.46 178.02 C 167.45 182.75 161.59 181.14 158.10 181.45 C 158.09 178.98 158.08 176.51 158.07 174.04 Z" />
<path fill="#000000" opacity="1.00" d=" M 192.45 177.17 C 193.56 179.91 194.65 182.66 195.75 185.40 C 193.59 185.40 191.43 185.41 189.27 185.41 C 190.35 182.67 191.42 179.93 192.45 177.17 Z" />
<path fill="#000000" opacity="1.00" d=" M 127.34 185.58 C 130.20 185.61 133.09 185.37 135.93 185.85 C 138.29 186.13 139.10 189.72 136.68 190.59 C 133.68 191.55 130.45 191.06 127.35 191.17 C 127.35 189.30 127.34 187.44 127.34 185.58 Z" />
</g>
</svg>
