<?xml version="1.0" encoding="UTF-8" ?>
<!DOCTYPE svg PUBLIC "-//W3C//DTD SVG 1.1//EN" "http://www.w3.org/Graphics/SVG/1.1/DTD/svg11.dtd">
<svg width="128pt" height="128pt" viewBox="0 0 128 128" version="1.1" xmlns="http://www.w3.org/2000/svg">
<g id="#000000ff">
<path fill="#000000" opacity="1.00" d=" M 20.36 10.51 C 27.46 8.31 35.58 12.82 37.59 19.92 C 40.33 27.76 34.30 37.01 26.09 37.85 C 18.42 39.16 10.54 32.83 10.27 25.04 C 9.58 18.59 14.11 12.15 20.36 10.51 Z" />
<path fill="#000000" opacity="1.00" d=" M 68.56 58.27 C 72.71 50.01 81.87 44.80 91.06 45.13 C 98.67 44.80 107.14 46.73 112.10 52.95 C 116.84 58.86 117.63 66.80 118.22 74.08 C 118.50 88.58 118.10 103.10 118.43 117.60 C 110.68 117.61 102.94 117.59 95.19 117.61 C 95.12 105.42 95.26 93.23 95.12 81.04 C 94.91 76.24 94.50 70.81 90.91 67.20 C 87.31 64.12 81.99 64.53 77.75 65.84 C 71.95 67.71 69.58 74.29 69.73 79.89 C 69.94 92.37 69.53 104.87 69.95 117.35 C 62.24 117.92 54.49 117.45 46.76 117.60 C 46.82 93.87 46.82 70.13 46.76 46.40 C 54.04 46.37 61.32 46.46 68.60 46.34 C 68.60 50.32 68.59 54.30 68.56 58.27 Z" />
<path fill="#000000" opacity="1.00" d=" M 12.97 46.43 C 20.63 46.65 28.31 46.11 35.95 46.71 C 35.50 63.79 35.88 80.88 35.75 97.96 C 35.83 104.40 35.56 110.86 35.95 117.29 C 28.33 117.90 20.67 117.30 13.04 117.61 C 12.78 93.89 12.92 70.16 12.97 46.43 Z" />
</g>
</svg>
