<?xml version="1.0" encoding="UTF-8" ?>
<!DOCTYPE svg PUBLIC "-//W3C//DTD SVG 1.1//EN" "http://www.w3.org/Graphics/SVG/1.1/DTD/svg11.dtd">
<svg width="128pt" height="128pt" viewBox="0 0 128 128" version="1.1" xmlns="http://www.w3.org/2000/svg">
<g id="#000000ff">
<path fill="#000000" opacity="1.00" d=" M 5.00 4.00 C 44.67 4.00 84.33 4.00 124.00 4.00 C 124.00 44.00 124.00 84.00 124.00 124.00 C 84.33 124.00 44.67 124.00 5.00 124.00 C 5.00 84.00 5.00 44.00 5.00 4.00 M 7.00 6.00 C 7.00 44.67 7.00 83.33 7.00 122.00 C 45.33 122.00 83.67 122.00 122.00 122.00 C 122.00 83.33 122.00 44.67 122.00 6.00 C 83.67 6.00 45.33 6.00 7.00 6.00 Z" />
<path fill="#000000" opacity="1.00" d=" M 12.84 11.00 C 46.95 11.03 81.06 11.03 115.18 11.00 C 100.44 40.86 85.61 70.68 70.78 100.49 C 68.50 104.90 66.80 109.65 63.94 113.73 C 60.95 108.91 58.81 103.62 56.27 98.56 C 41.74 69.40 27.24 40.22 12.84 11.00 Z" />
<path fill="#000000" opacity="1.00" d=" M 11.06 13.39 C 12.27 15.15 13.24 17.06 14.14 18.99 C 30.14 51.74 46.61 84.25 62.59 117.00 C 45.40 116.97 28.21 116.99 11.02 116.98 C 11.05 82.45 10.95 47.92 11.06 13.39 Z" />
<path fill="#000000" opacity="1.00" d=" M 113.86 18.97 C 114.76 17.04 115.73 15.15 116.94 13.39 C 117.05 47.92 116.95 82.45 116.98 116.98 C 99.79 116.99 82.60 116.97 65.41 117.00 C 81.38 84.24 97.86 51.72 113.86 18.97 Z" />
</g>
</svg>
