<?xml version="1.0" encoding="UTF-8" ?>
<!DOCTYPE svg PUBLIC "-//W3C//DTD SVG 1.1//EN" "http://www.w3.org/Graphics/SVG/1.1/DTD/svg11.dtd">
<svg width="128pt" height="128pt" viewBox="0 0 128 128" version="1.1" xmlns="http://www.w3.org/2000/svg">
<g id="#000000ff">
<path fill="#000000" opacity="1.00" d=" M 20.17 19.25 C 27.63 19.22 35.09 19.21 42.55 19.25 C 52.12 26.45 59.16 36.73 63.10 47.98 C 64.56 46.33 65.46 44.30 66.56 42.41 C 71.84 33.65 78.44 25.61 86.52 19.29 C 93.46 19.15 100.41 19.28 107.35 19.20 C 111.12 28.09 111.98 37.83 112.54 47.37 C 113.43 67.54 112.00 87.70 110.15 107.77 C 101.09 107.80 92.04 107.72 82.99 107.81 C 85.30 95.97 87.42 84.09 89.01 72.14 C 89.88 65.12 90.96 58.05 90.39 50.96 C 90.22 48.39 89.42 45.85 88.08 43.65 C 85.01 42.38 83.44 46.12 82.10 48.19 C 75.96 60.38 72.42 73.65 68.58 86.68 C 64.27 86.59 59.97 86.61 55.66 86.62 C 53.12 76.21 50.23 65.86 46.45 55.83 C 44.79 51.90 43.36 47.67 40.40 44.51 C 39.28 42.80 36.53 43.21 36.01 45.19 C 32.77 51.63 33.69 59.11 34.21 66.03 C 35.20 80.08 38.03 93.90 39.99 107.82 C 32.27 107.73 24.55 107.78 16.83 107.78 C 16.34 84.52 14.13 61.24 15.79 37.98 C 16.40 31.59 17.06 25.00 20.17 19.25 Z" />
<path fill="#000000" opacity="1.00" d=" M 51.26 99.28 C 53.22 98.68 56.14 99.56 55.85 102.08 C 56.73 105.23 52.14 107.07 50.25 104.76 C 48.47 103.27 49.13 100.09 51.26 99.28 Z" />
<path fill="#000000" opacity="1.00" d=" M 71.26 104.76 C 68.85 102.81 70.95 98.34 74.05 99.17 C 76.86 98.99 76.88 102.15 77.01 104.14 C 75.47 105.47 72.86 106.69 71.26 104.76 Z" />
</g>
</svg>
