<?xml version="1.0" encoding="UTF-8" ?>
<!DOCTYPE svg PUBLIC "-//W3C//DTD SVG 1.1//EN" "http://www.w3.org/Graphics/SVG/1.1/DTD/svg11.dtd">
<svg width="512pt" height="512pt" viewBox="0 0 512 512" version="1.1" xmlns="http://www.w3.org/2000/svg">
<g id="#ffffffff">
<path fill="#ffffff" opacity="1.00" d=" M 432.37 26.28 C 444.20 25.99 456.05 26.15 467.89 26.19 C 467.80 26.58 467.63 27.34 467.54 27.72 C 468.02 27.60 468.98 27.35 469.46 27.23 C 469.47 27.86 469.48 29.12 469.48 29.75 C 470.01 29.61 471.08 29.34 471.61 29.20 C 472.20 47.10 471.69 65.04 471.86 82.95 C 471.86 163.96 471.87 244.96 471.86 325.96 C 471.80 330.46 472.13 334.98 471.51 339.45 C 470.74 339.43 469.22 339.40 468.46 339.39 C 468.39 343.93 468.63 348.48 468.34 353.03 C 467.65 352.56 466.27 351.63 465.58 351.16 L 468.09 354.50 L 464.29 351.91 L 466.75 354.95 L 464.63 354.07 C 464.59 355.99 464.53 357.90 464.50 359.83 L 463.10 359.25 L 463.61 360.91 C 463.10 360.73 462.08 360.37 461.57 360.19 C 461.49 362.09 461.42 363.98 461.39 365.89 L 460.24 365.23 C 460.34 365.82 460.55 366.98 460.65 367.57 C 460.05 367.51 458.86 367.41 458.26 367.36 L 458.89 368.71 L 457.35 368.37 C 457.41 368.92 457.51 370.02 457.57 370.58 C 457.01 370.52 455.90 370.40 455.35 370.34 L 455.89 371.65 L 454.40 371.37 L 454.64 372.85 L 453.38 372.36 C 453.42 372.91 453.52 374.02 453.57 374.57 C 453.02 374.51 451.92 374.40 451.37 374.34 L 451.67 375.84 L 450.07 375.44 C 450.26 375.95 450.63 376.97 450.81 377.49 L 449.21 377.13 L 449.62 378.54 C 448.61 378.44 446.58 378.25 445.56 378.16 L 449.43 379.27 L 446.33 379.51 C 446.39 380.02 446.52 381.05 446.58 381.57 C 446.03 381.51 444.92 381.40 444.37 381.35 L 444.71 382.78 L 443.13 382.44 C 443.28 382.93 443.57 383.91 443.72 384.41 L 441.56 384.47 L 442.72 386.31 C 441.92 385.76 440.32 384.67 439.53 384.12 L 441.63 386.70 L 439.47 386.23 C 439.48 386.80 439.50 387.93 439.51 388.49 C 438.93 388.49 437.77 388.51 437.19 388.51 L 437.80 390.72 L 435.13 388.49 L 437.43 392.00 L 434.24 389.73 C 434.69 390.38 435.60 391.67 436.05 392.32 C 433.79 392.45 431.55 392.55 429.29 392.61 C 429.47 393.27 429.81 394.59 429.98 395.26 L 428.32 392.81 L 428.71 395.58 L 421.06 395.14 L 429.80 396.34 C 427.22 396.34 424.71 396.42 422.15 396.47 L 422.72 397.83 L 421.03 397.40 C 421.21 397.90 421.56 398.90 421.73 399.39 C 416.46 400.07 411.25 398.91 406.01 398.95 L 415.22 400.16 L 407.23 400.46 L 407.73 402.81 L 405.22 400.46 C 405.65 401.18 406.50 402.63 406.93 403.35 C 392.96 403.58 378.99 403.43 365.02 403.42 L 365.96 401.23 L 362.97 403.71 L 365.28 400.11 L 362.06 402.48 C 362.54 401.78 363.49 400.40 363.96 399.70 C 359.37 399.45 354.77 399.63 350.18 399.53 L 350.70 398.10 L 349.04 398.61 C 349.22 398.10 349.58 397.08 349.76 396.57 C 348.15 396.53 346.55 396.47 344.96 396.40 L 345.95 395.59 C 345.05 395.57 343.25 395.53 342.35 395.51 C 342.42 394.99 342.57 393.93 342.64 393.41 C 342.03 393.46 340.82 393.55 340.22 393.59 L 340.97 392.55 C 338.99 392.50 337.02 392.44 335.04 392.33 C 335.47 391.67 336.32 390.35 336.74 389.69 L 333.64 391.93 L 335.92 388.48 L 333.10 390.69 L 333.99 388.51 L 332.32 388.71 L 332.49 386.99 L 329.95 388.60 L 333.23 385.51 L 329.65 387.65 L 332.01 384.60 L 328.54 386.88 L 330.89 383.66 L 327.49 385.98 L 329.87 382.66 L 326.53 384.94 L 328.96 381.55 L 325.68 383.85 L 328.02 380.36 L 325.35 382.62 L 325.69 380.34 L 323.38 380.60 L 325.68 378.00 L 322.37 380.16 L 324.62 376.81 L 321.56 379.81 L 323.77 376.29 L 321.41 378.70 L 321.65 376.31 L 319.34 376.59 L 321.68 374.11 L 318.08 376.21 L 320.41 373.26 C 319.71 373.68 318.30 374.51 317.59 374.92 C 317.62 374.23 317.67 372.84 317.69 372.14 L 315.42 374.18 L 317.87 370.58 L 314.72 372.87 L 316.90 369.43 L 314.31 371.69 L 314.74 369.41 L 311.51 369.65 L 315.65 368.39 L 312.13 368.75 L 314.24 366.15 L 310.78 368.96 L 312.76 365.39 L 310.51 367.74 C 310.43 365.56 310.35 363.41 310.32 361.23 C 309.88 361.37 309.01 361.63 308.57 361.77 C 308.54 361.15 308.48 359.92 308.46 359.30 C 307.97 359.42 306.99 359.66 306.50 359.77 C 306.43 356.57 306.49 353.36 306.50 350.16 L 305.02 350.86 L 305.80 349.36 C 305.18 349.41 303.95 349.51 303.34 349.56 C 303.44 348.98 303.63 347.83 303.73 347.25 L 302.51 347.91 C 302.57 343.73 302.67 339.55 302.53 335.37 C 302.00 335.43 300.94 335.54 300.41 335.59 L 299.86 320.86 C 299.65 325.01 299.23 333.32 299.02 337.47 C 298.46 332.09 298.70 326.69 298.68 321.29 C 299.14 321.44 300.05 321.74 300.50 321.89 L 300.49 320.18 C 300.99 320.32 301.97 320.59 302.46 320.73 C 302.79 314.83 302.40 308.93 302.65 303.03 C 303.35 303.46 304.74 304.32 305.43 304.75 L 302.86 301.58 L 306.58 303.84 L 304.16 301.02 L 306.39 301.97 C 306.45 299.83 306.53 297.70 306.60 295.56 C 307.32 295.55 308.78 295.52 309.50 295.51 C 309.57 293.42 309.65 291.34 309.68 289.26 C 310.12 289.39 311.01 289.64 311.46 289.77 C 311.48 289.16 311.53 287.93 311.56 287.32 C 312.03 287.44 312.97 287.69 313.44 287.82 C 313.49 285.54 313.58 283.27 313.70 281.00 C 314.36 281.46 315.68 282.40 316.34 282.86 L 314.04 279.50 L 317.36 281.96 L 315.28 278.68 L 317.94 280.73 L 316.99 278.48 L 318.68 278.73 L 318.15 277.45 L 319.53 277.65 L 319.60 276.20 L 320.92 276.77 L 320.12 275.22 L 321.38 275.88 L 321.54 274.55 L 322.82 274.35 L 322.45 273.09 C 322.92 273.25 323.86 273.56 324.33 273.71 C 324.41 272.91 324.56 271.31 324.63 270.51 C 327.36 270.65 330.08 270.79 332.83 270.78 L 325.50 269.86 L 331.70 269.51 C 331.63 269.00 331.48 267.99 331.41 267.48 C 331.97 267.50 333.11 267.53 333.67 267.54 C 333.61 267.07 333.47 266.13 333.40 265.65 C 334.17 265.55 335.73 265.35 336.50 265.25 C 336.40 264.80 336.20 263.90 336.09 263.45 C 337.35 263.45 339.86 263.45 341.12 263.45 L 338.89 262.55 C 339.85 262.53 341.77 262.48 342.72 262.46 C 342.57 261.93 342.26 260.89 342.11 260.37 L 343.77 260.94 L 343.19 259.56 C 345.08 259.54 346.97 259.50 348.87 259.48 L 348.14 258.10 L 349.68 258.75 C 349.63 258.16 349.54 256.98 349.49 256.39 C 350.08 256.49 351.25 256.70 351.84 256.80 L 351.13 255.65 C 353.01 255.62 354.88 255.56 356.76 255.50 L 356.14 254.10 L 357.78 254.56 C 357.64 254.06 357.37 253.05 357.24 252.55 C 364.07 252.37 370.90 252.55 377.74 252.45 C 377.64 251.97 377.43 251.00 377.33 250.52 C 377.90 250.52 379.04 250.52 379.61 250.51 L 379.00 247.54 L 380.73 251.08 L 380.19 248.54 C 383.76 248.61 387.33 248.60 390.90 248.53 L 390.37 249.94 C 390.90 249.72 391.96 249.27 392.49 249.05 L 392.29 250.73 L 393.85 250.49 C 393.69 250.97 393.38 251.92 393.23 252.40 C 400.27 252.63 407.32 252.28 414.36 252.61 C 414.40 253.33 414.48 254.78 414.52 255.50 C 417.89 255.25 421.88 256.78 424.68 254.24 L 421.19 257.96 L 425.54 255.08 L 422.99 258.39 L 426.57 256.04 L 424.31 258.82 L 426.48 258.14 L 426.52 261.33 L 427.52 257.26 L 427.31 260.95 L 429.66 258.65 L 427.14 262.44 L 430.30 260.12 L 428.01 263.58 L 430.93 261.34 L 430.03 263.34 C 432.42 263.41 434.82 263.54 437.21 263.71 L 431.92 264.50 L 436.62 264.45 C 436.55 264.96 436.41 265.98 436.34 266.49 C 438.09 266.52 439.86 266.56 441.62 266.55 C 441.65 267.14 441.71 268.33 441.74 268.92 C 442.43 268.43 443.80 267.46 444.48 266.97 L 442.16 270.37 L 445.39 268.08 L 443.20 271.25 L 446.45 269.14 L 444.34 271.86 L 446.45 271.08 C 446.47 271.67 446.52 272.87 446.54 273.46 C 447.54 273.49 449.55 273.53 450.55 273.56 C 450.40 225.86 450.46 178.16 450.52 130.46 C 449.11 130.52 447.70 130.57 446.30 130.64 C 446.47 131.13 446.79 132.13 446.95 132.63 L 445.31 132.17 L 445.82 133.57 C 438.26 133.59 430.70 133.60 423.14 133.54 L 423.70 134.83 C 423.15 134.69 422.07 134.41 421.53 134.27 C 421.54 134.86 421.57 136.03 421.58 136.61 L 414.68 136.31 L 422.73 137.35 C 412.91 137.65 403.08 137.31 393.25 137.54 C 393.37 138.02 393.60 138.97 393.72 139.45 L 392.00 139.47 C 392.16 139.90 392.48 140.77 392.64 141.20 C 387.76 141.40 382.94 142.58 378.04 142.14 L 393.00 140.73 C 389.56 140.69 382.68 140.61 379.23 140.58 L 380.81 141.41 C 379.99 141.42 378.34 141.44 377.52 141.45 L 377.23 140.53 C 374.87 141.01 372.36 141.67 370.01 140.84 C 369.28 140.72 367.81 140.49 367.08 140.37 L 367.93 141.41 C 367.00 141.43 365.13 141.48 364.19 141.51 C 364.33 142.02 364.60 143.06 364.73 143.57 L 363.18 142.95 L 363.74 144.44 C 354.25 144.71 344.76 144.34 335.27 144.64 C 335.45 145.10 335.81 146.03 335.99 146.49 L 334.29 146.39 L 334.95 149.74 L 333.19 145.48 L 333.77 148.45 C 325.91 148.43 318.06 148.33 310.21 148.51 L 310.86 149.90 L 309.21 149.44 C 309.35 149.95 309.64 150.97 309.78 151.47 C 300.58 151.69 291.38 151.52 282.19 151.57 L 282.79 152.92 L 281.10 152.39 C 281.25 152.90 281.57 153.92 281.72 154.43 C 273.02 155.00 264.27 154.65 255.55 154.64 C 255.41 155.44 255.14 157.02 255.00 157.82 C 254.75 156.66 254.24 154.33 253.98 153.17 L 253.50 156.74 L 250.24 155.70 L 253.92 157.49 L 250.79 157.59 L 252.51 159.74 C 249.86 157.92 246.43 159.22 243.44 158.54 L 243.00 161.40 L 242.56 158.55 C 239.51 158.65 236.47 158.66 233.43 158.55 L 233.05 161.18 L 231.94 156.75 L 231.57 159.41 C 230.54 159.41 228.49 159.39 227.47 159.38 L 227.01 156.56 L 226.50 159.46 C 225.70 159.49 224.09 159.56 223.28 159.60 C 223.45 160.11 223.79 161.13 223.95 161.65 L 222.30 161.08 L 222.81 162.50 C 219.00 162.50 215.20 162.50 211.41 162.66 L 219.14 163.76 L 212.55 163.41 C 212.61 218.95 212.56 274.49 212.58 330.02 C 212.49 359.27 212.75 388.53 212.45 417.78 C 211.93 417.61 210.90 417.26 210.38 417.08 L 210.87 418.73 L 209.45 418.18 C 209.31 423.90 209.52 429.62 209.38 435.34 C 208.56 435.41 206.93 435.56 206.12 435.63 C 206.32 436.12 206.73 437.09 206.93 437.57 L 205.55 437.12 C 205.52 438.99 205.47 440.87 205.43 442.75 C 204.95 442.61 204.00 442.31 203.52 442.16 L 203.48 443.94 C 203.04 443.78 202.15 443.45 201.70 443.28 C 201.67 445.44 201.59 447.59 201.53 449.76 C 201.02 449.67 200.00 449.50 199.49 449.42 C 199.52 449.98 199.57 451.09 199.60 451.65 L 198.12 451.31 L 198.56 452.95 L 196.22 452.13 L 198.44 454.69 C 197.74 454.30 196.35 453.51 195.65 453.11 C 195.61 453.77 195.54 455.09 195.50 455.75 L 194.17 455.07 L 194.72 456.55 L 190.52 456.70 L 195.46 457.31 C 194.29 457.40 191.93 457.59 190.75 457.68 C 190.72 459.95 190.62 462.21 190.52 464.49 C 189.80 464.52 188.37 464.59 187.66 464.63 C 187.61 465.35 187.52 466.79 187.48 467.51 C 185.48 467.57 183.48 467.65 181.49 467.66 C 181.49 468.19 181.51 469.24 181.52 469.77 L 179.30 469.21 L 181.51 471.93 L 178.02 469.55 L 180.29 472.76 L 176.68 470.30 L 178.86 472.87 C 178.29 472.72 177.16 472.44 176.59 472.30 C 176.57 472.91 176.53 474.15 176.50 474.76 C 175.95 474.64 174.84 474.38 174.28 474.26 L 174.90 475.42 C 173.14 475.44 171.38 475.50 169.61 475.57 C 169.57 476.30 169.48 477.74 169.44 478.46 C 167.66 478.51 165.89 478.55 164.12 478.59 L 164.69 479.85 C 164.16 479.70 163.09 479.39 162.55 479.24 C 162.52 479.87 162.47 481.13 162.45 481.76 C 161.92 481.63 160.88 481.36 160.35 481.23 L 160.91 482.51 C 157.81 482.45 154.72 482.45 151.62 482.59 C 151.63 483.37 151.64 484.93 151.64 485.71 C 140.77 486.05 129.89 485.77 119.01 485.86 C 112.84 485.76 106.66 486.14 100.51 485.56 C 100.52 484.79 100.55 483.26 100.56 482.50 C 97.43 482.46 94.31 482.47 91.18 482.45 L 91.90 481.04 L 90.37 481.75 C 90.40 481.15 90.48 479.97 90.52 479.37 C 89.95 479.47 88.80 479.66 88.23 479.75 L 88.87 478.60 C 87.00 478.56 85.14 478.51 83.28 478.45 C 83.41 477.94 83.69 476.91 83.83 476.40 L 82.22 476.88 L 82.77 475.45 C 80.84 475.43 78.92 475.45 77.00 475.50 L 79.84 473.27 C 78.72 473.90 76.50 475.17 75.38 475.81 L 78.02 472.75 L 74.35 474.89 L 76.65 472.42 L 74.26 472.62 L 74.66 470.36 L 72.04 472.67 L 74.26 469.10 L 71.18 471.44 C 71.62 470.75 72.50 469.36 72.94 468.66 C 71.01 468.50 69.07 468.38 67.13 468.34 L 67.77 467.21 C 67.19 467.34 66.04 467.59 65.46 467.72 C 65.48 467.14 65.50 465.98 65.51 465.40 C 64.99 465.45 63.95 465.54 63.43 465.59 C 63.46 465.06 63.53 464.01 63.56 463.49 C 63.02 463.51 61.94 463.55 61.39 463.57 C 61.45 463.02 61.56 461.91 61.62 461.36 L 60.20 461.89 L 60.59 460.36 C 60.05 460.43 58.98 460.58 58.44 460.66 C 58.46 460.09 58.49 458.94 58.50 458.37 C 58.00 458.43 56.99 458.55 56.48 458.61 C 56.48 458.03 56.49 456.89 56.49 456.32 C 56.01 456.43 55.05 456.65 54.57 456.76 C 54.54 453.83 54.35 450.89 53.99 447.98 C 53.76 449.58 53.29 452.78 53.06 454.38 L 52.54 449.42 L 48.66 449.07 C 49.82 448.81 52.14 448.28 53.31 448.02 L 49.46 447.24 L 50.67 446.73 C 50.56 445.37 50.34 442.65 50.24 441.29 L 49.68 446.59 L 49.52 442.30 C 49.01 442.40 48.01 442.60 47.51 442.70 C 47.47 440.84 47.42 438.99 47.41 437.14 L 46.22 437.76 C 46.33 437.18 46.55 436.02 46.65 435.44 C 46.02 435.52 44.75 435.67 44.11 435.75 L 45.56 434.20 L 43.52 434.84 C 43.47 430.40 43.63 425.96 43.48 421.52 C 42.43 421.54 41.38 421.56 40.34 421.59 C 40.02 414.21 39.97 406.79 40.36 399.42 C 41.14 399.44 42.70 399.48 43.48 399.50 C 43.64 394.88 43.42 390.25 43.59 385.63 C 44.40 385.56 46.04 385.43 46.86 385.37 C 46.63 384.87 46.18 383.88 45.96 383.39 L 47.42 383.85 C 47.44 382.05 47.47 380.26 47.50 378.47 C 48.23 378.45 49.69 378.42 50.41 378.40 C 50.49 376.63 50.55 374.85 50.59 373.09 L 51.66 373.76 C 51.56 373.16 51.36 371.96 51.26 371.36 C 51.83 371.39 52.98 371.44 53.55 371.47 C 53.50 370.95 53.38 369.93 53.32 369.42 L 55.52 369.50 L 53.44 367.12 L 56.88 369.25 L 54.52 366.05 C 55.22 366.55 56.63 367.54 57.33 368.04 C 57.46 366.38 57.57 364.72 57.68 363.06 L 58.45 363.98 C 58.46 363.04 58.48 361.17 58.49 360.23 C 58.98 360.36 59.96 360.61 60.45 360.73 C 60.51 359.81 60.64 357.95 60.70 357.03 L 61.37 361.30 L 61.53 357.40 C 62.04 357.44 63.08 357.52 63.60 357.56 C 63.55 357.05 63.46 356.02 63.41 355.51 C 63.97 355.51 65.10 355.52 65.66 355.52 C 65.57 355.02 65.40 354.03 65.32 353.53 C 67.53 353.42 69.75 353.34 71.96 353.27 C 71.53 352.62 70.65 351.33 70.22 350.69 L 73.35 352.97 L 71.23 349.57 L 73.58 351.56 L 73.35 349.27 C 73.86 349.35 74.89 349.53 75.40 349.62 C 75.44 349.00 75.52 347.76 75.56 347.14 L 77.85 347.80 L 75.27 345.19 C 76.42 345.84 78.71 347.13 79.86 347.77 L 77.08 345.52 C 78.98 345.56 80.87 345.57 82.77 345.57 L 82.24 344.12 L 83.88 344.60 C 83.73 344.09 83.41 343.07 83.25 342.57 C 85.12 342.50 86.98 342.44 88.85 342.42 L 88.35 341.16 C 88.87 341.31 89.90 341.60 90.42 341.75 C 90.45 341.12 90.50 339.86 90.52 339.23 C 91.06 339.37 92.14 339.64 92.68 339.77 L 92.07 338.51 C 95.51 338.59 98.94 338.58 102.37 338.29 L 96.77 337.60 L 101.65 337.54 C 101.58 337.03 101.42 336.00 101.35 335.49 C 102.73 335.45 104.12 335.44 105.52 335.43 L 106.00 332.71 L 106.47 335.46 C 115.49 335.34 124.52 335.33 133.54 335.46 L 134.00 332.70 L 134.46 335.46 C 140.22 335.37 145.99 335.24 151.74 335.58 C 151.58 336.08 151.26 337.10 151.10 337.60 L 152.74 337.12 L 152.19 338.51 C 155.36 338.55 158.53 338.54 161.70 338.56 C 161.61 339.04 161.42 339.99 161.32 340.47 C 161.91 340.49 163.10 340.54 163.69 340.56 C 163.58 341.02 163.36 341.93 163.25 342.38 C 165.31 342.41 167.38 342.49 169.45 342.56 C 169.48 343.28 169.55 344.73 169.59 345.46 C 172.00 345.31 174.87 346.51 176.69 344.20 L 173.33 347.83 L 177.61 345.10 L 175.20 347.85 L 177.44 347.18 C 177.47 347.80 177.53 349.03 177.56 349.64 C 178.50 349.43 180.38 349.01 181.31 348.80 L 177.90 350.28 L 180.61 350.50 C 180.58 351.06 180.53 352.17 180.50 352.72 L 183.26 352.10 L 180.37 354.33 C 181.43 353.83 183.55 352.85 184.61 352.36 L 182.14 354.59 L 184.50 354.31 C 184.50 354.89 184.51 356.04 184.51 356.62 C 185.02 356.55 186.03 356.43 186.54 356.37 C 186.52 356.92 186.48 358.04 186.46 358.60 C 187.00 358.57 188.09 358.52 188.63 358.49 C 188.55 358.97 188.39 359.93 188.31 360.41 C 189.34 360.37 190.37 360.35 191.40 360.34 C 191.48 262.39 191.34 164.43 191.47 66.47 L 188.78 66.00 L 191.51 65.51 C 191.49 64.70 191.46 63.09 191.45 62.28 C 191.96 62.37 193.00 62.54 193.51 62.62 C 193.50 62.07 193.48 60.98 193.47 60.43 C 194.01 60.46 195.09 60.52 195.62 60.54 C 195.55 60.03 195.39 59.01 195.31 58.50 C 199.85 58.39 204.40 58.56 208.94 58.35 C 208.51 57.62 207.65 56.18 207.22 55.45 L 209.75 57.83 L 209.23 55.48 L 217.41 55.16 L 208.00 53.96 C 217.88 54.71 227.83 54.70 237.76 54.45 L 237.11 52.05 L 238.92 53.95 C 238.74 53.35 238.38 52.14 238.20 51.53 C 246.07 51.27 253.96 51.45 261.84 51.44 L 261.23 50.20 C 261.79 50.30 262.92 50.49 263.49 50.58 C 263.44 49.99 263.35 48.81 263.30 48.21 L 264.80 48.93 L 264.15 47.51 C 273.35 47.47 282.55 47.63 291.74 47.43 C 291.61 46.96 291.33 46.02 291.20 45.55 L 292.93 45.50 C 292.79 45.04 292.50 44.13 292.36 43.68 C 301.74 43.51 311.13 43.76 320.51 43.54 C 320.55 42.82 320.63 41.36 320.67 40.64 C 329.75 40.28 338.83 40.52 347.91 40.51 L 347.36 39.25 C 347.89 39.39 348.96 39.65 349.49 39.79 C 349.51 39.16 349.56 37.91 349.58 37.28 C 350.11 37.42 351.17 37.70 351.70 37.83 L 351.12 36.53 C 359.00 36.53 366.87 36.73 374.74 36.43 C 374.59 35.92 374.29 34.90 374.14 34.39 L 375.72 34.92 C 375.60 34.56 375.36 33.84 375.24 33.48 C 384.40 33.33 393.57 33.47 402.74 33.41 C 402.62 32.95 402.39 32.03 402.27 31.57 C 402.87 31.54 404.07 31.47 404.67 31.44 C 404.57 30.97 404.37 30.03 404.27 29.55 C 413.64 29.42 423.01 29.69 432.37 29.41 C 432.36 28.37 432.36 27.32 432.37 26.28 Z" />
</g>
</svg>
