<?xml version="1.0" encoding="UTF-8" ?>
<!DOCTYPE svg PUBLIC "-//W3C//DTD SVG 1.1//EN" "http://www.w3.org/Graphics/SVG/1.1/DTD/svg11.dtd">
<svg width="128pt" height="128pt" viewBox="0 0 128 128" version="1.1" xmlns="http://www.w3.org/2000/svg">
<g id="#000000ff">
<path fill="#000000" opacity="1.00" d=" M 28.38 3.36 C 35.68 0.37 44.70 4.73 47.16 12.17 C 50.39 19.58 45.64 28.94 37.99 31.21 C 30.01 34.41 20.36 28.30 18.85 20.05 C 17.34 13.13 21.78 5.70 28.38 3.36 Z" />
<path fill="#000000" opacity="1.00" d=" M 46.19 7.54 C 62.90 2.55 81.83 6.14 95.33 17.25 C 85.41 15.50 74.93 19.62 68.66 27.46 C 61.00 36.55 60.04 50.51 66.40 60.56 C 72.31 70.51 84.62 76.18 96.02 73.94 C 103.56 72.77 110.03 68.05 114.70 62.18 C 113.25 76.18 106.68 89.73 95.71 98.70 C 89.79 103.76 82.67 107.20 75.25 109.43 C 76.21 104.25 76.38 98.67 74.14 93.78 C 70.41 84.77 60.70 78.63 50.94 79.35 C 40.04 79.88 30.24 88.86 28.98 99.73 C 16.07 89.51 8.70 73.27 8.60 56.92 C 9.44 45.75 13.13 34.81 19.84 25.78 C 22.93 30.41 28.28 33.57 33.93 33.27 C 41.49 33.16 48.32 26.94 49.26 19.47 C 49.98 15.25 48.48 11.04 46.19 7.54 M 54.31 10.38 C 51.86 11.99 51.87 15.97 54.41 17.49 C 56.71 19.35 60.40 17.70 60.99 14.91 C 62.14 11.35 57.28 7.84 54.31 10.38 M 65.39 14.26 C 62.95 15.91 62.94 19.91 65.54 21.41 C 67.81 23.20 71.42 21.64 72.04 18.91 C 73.30 15.30 68.40 11.75 65.39 14.26 M 26.21 37.00 C 23.40 38.37 23.02 42.65 25.68 44.39 C 27.95 46.28 31.69 44.75 32.34 41.99 C 33.46 38.63 29.29 35.13 26.21 37.00 M 27.38 48.37 C 24.62 49.31 23.59 53.18 25.64 55.32 C 27.62 57.84 31.94 56.88 32.92 53.91 C 34.37 50.71 30.58 46.99 27.38 48.37 M 30.41 60.51 C 27.08 61.19 25.98 66.03 28.73 68.04 C 31.18 70.48 35.69 68.33 35.75 65.01 C 36.06 62.20 33.13 59.73 30.41 60.51 M 35.20 71.95 C 32.19 73.38 32.32 78.30 35.35 79.62 C 37.89 81.14 41.48 78.93 41.56 76.06 C 41.95 72.84 37.99 70.12 35.20 71.95 M 88.23 78.13 C 85.45 79.51 84.96 83.70 87.58 85.50 C 90.20 87.83 94.67 85.34 94.49 81.97 C 94.51 78.95 90.93 76.65 88.23 78.13 M 80.37 87.36 C 77.87 88.71 77.40 92.53 79.61 94.37 C 81.94 96.71 86.35 95.08 86.73 91.84 C 87.45 88.49 83.29 85.38 80.37 87.36 Z" />
<path fill="#000000" opacity="1.00" d=" M 87.40 18.35 C 101.66 15.91 116.12 26.88 118.22 41.05 C 120.89 54.65 111.33 68.89 98.00 72.17 C 86.51 75.61 73.29 69.92 67.33 59.63 C 61.65 50.32 62.36 37.65 69.04 29.02 C 73.40 23.20 80.19 19.27 87.40 18.35 Z" />
<path fill="#000000" opacity="1.00" d=" M 47.25 81.20 C 60.31 77.70 74.57 88.52 74.71 102.03 C 75.81 114.91 63.81 126.57 51.03 125.51 C 38.04 125.03 27.22 111.52 30.37 98.75 C 32.00 90.25 38.81 83.14 47.25 81.20 Z" />
</g>
</svg>
