<?xml version="1.0" encoding="UTF-8" ?>
<!DOCTYPE svg PUBLIC "-//W3C//DTD SVG 1.1//EN" "http://www.w3.org/Graphics/SVG/1.1/DTD/svg11.dtd">
<svg width="512pt" height="512pt" viewBox="0 0 512 512" version="1.1" xmlns="http://www.w3.org/2000/svg">
<g id="#ffffffff">
<path fill="#ffffff" opacity="1.00" d=" M 172.74 74.80 C 175.85 74.49 179.00 74.57 182.04 73.69 C 227.69 73.59 273.35 73.68 319.00 73.65 C 324.06 73.75 329.18 73.20 334.13 74.47 C 341.70 73.91 348.31 79.90 351.17 86.53 C 352.49 90.88 354.67 94.93 355.49 99.43 C 356.03 102.20 357.93 104.49 358.42 107.26 C 358.96 112.13 362.12 116.20 362.70 121.08 C 364.84 126.86 366.37 133.56 371.69 137.34 C 374.67 139.22 377.71 141.05 380.96 142.39 C 402.28 142.51 423.60 142.31 444.92 142.50 C 448.15 142.32 450.89 144.29 453.86 145.24 C 459.02 146.87 462.71 151.05 467.27 153.74 C 471.14 155.85 472.85 160.15 475.57 163.40 C 478.23 166.60 479.47 170.69 482.03 173.93 C 484.64 176.17 483.45 179.97 483.84 182.99 C 483.96 249.32 483.85 315.66 483.89 382.00 C 483.83 390.02 484.11 398.07 483.39 406.07 C 482.36 406.79 480.99 407.29 480.46 408.52 C 477.68 414.11 474.35 419.50 470.13 424.13 C 464.53 429.44 457.66 433.15 450.82 436.62 C 449.39 437.51 447.66 437.42 446.05 437.44 C 332.03 437.70 218.01 437.48 104.00 437.55 C 90.11 437.47 76.20 437.77 62.33 437.25 C 55.03 433.71 47.77 429.78 41.73 424.29 C 37.81 419.80 34.42 414.85 31.79 409.49 C 31.25 408.17 29.97 407.39 28.69 406.94 C 28.14 401.64 28.12 396.31 28.11 391.00 C 28.11 335.66 28.11 280.33 28.11 225.00 C 28.31 208.25 27.65 191.48 28.55 174.76 C 32.13 172.37 33.01 167.84 35.63 164.63 C 38.71 160.76 40.77 155.78 45.31 153.32 C 49.78 150.51 53.63 146.52 58.80 144.97 C 61.53 144.08 64.09 142.31 67.08 142.49 C 88.40 142.31 109.72 142.50 131.04 142.40 C 134.26 140.99 137.25 139.11 140.28 137.34 C 145.64 133.59 147.15 126.85 149.30 121.08 C 149.88 116.20 153.04 112.13 153.58 107.26 C 154.04 104.43 156.10 102.13 156.53 99.28 C 157.23 95.07 159.38 91.33 160.57 87.26 C 162.55 81.54 167.31 77.23 172.74 74.80 M 175.60 80.89 C 172.16 83.30 168.88 86.31 166.81 89.99 C 165.83 95.33 162.81 100.01 162.07 105.42 C 159.51 110.02 159.20 115.35 156.79 120.01 C 154.68 126.93 152.94 134.46 147.90 139.93 C 144.45 144.35 139.04 146.21 134.49 149.19 C 112.92 149.66 91.28 149.32 69.69 149.33 C 65.52 149.16 62.36 152.64 58.20 152.85 C 54.73 155.99 50.43 157.91 46.74 160.73 C 44.02 164.42 41.93 168.54 39.11 172.17 C 37.69 176.01 35.34 179.75 35.37 183.95 C 35.57 250.62 35.39 317.31 35.47 383.98 C 35.71 386.71 34.44 389.26 34.56 391.98 C 34.96 398.02 36.70 403.98 39.75 409.23 C 42.53 412.84 44.37 417.16 47.59 420.42 C 52.79 424.37 58.37 427.90 64.43 430.39 C 68.97 430.59 73.54 430.29 77.98 431.45 C 201.56 431.57 325.19 431.37 448.74 431.54 C 445.35 431.19 441.88 431.69 438.59 430.69 C 441.39 430.36 444.21 430.63 447.03 430.45 C 453.58 427.59 459.74 423.78 465.27 419.27 C 471.71 411.17 477.48 401.69 477.41 391.00 C 477.11 388.67 476.35 386.41 476.53 384.04 C 476.61 317.34 476.43 250.64 476.63 183.95 C 476.67 179.77 474.27 176.09 472.91 172.25 C 470.09 168.59 467.94 164.48 465.29 160.72 C 461.39 158.17 457.39 155.80 453.86 152.74 C 449.61 152.84 446.52 149.09 442.31 149.33 C 421.03 149.39 399.73 149.51 378.45 149.30 C 370.98 145.98 363.52 141.18 360.14 133.39 C 358.86 129.60 356.54 126.11 356.27 122.04 C 355.36 118.47 353.22 115.31 352.65 111.63 C 352.18 108.19 349.54 105.44 349.40 101.94 C 349.05 98.55 346.97 95.69 346.04 92.47 C 344.99 87.73 340.92 84.60 337.45 81.58 C 334.20 81.66 331.09 80.74 327.89 80.52 C 280.26 80.53 232.63 80.51 185.01 80.53 C 181.87 80.65 178.71 80.46 175.60 80.89 Z" />
<path fill="#ffffff" opacity="1.00" d=" M 226.96 171.36 C 229.79 170.35 231.75 167.20 234.98 167.47 C 248.97 167.47 262.95 167.47 276.94 167.47 C 280.56 167.05 282.41 171.48 285.94 171.43 C 287.79 171.46 289.64 171.45 291.49 171.48 C 293.61 174.54 297.06 174.93 300.50 174.56 C 302.62 177.46 306.35 177.93 309.05 180.03 C 311.23 181.66 313.99 182.24 316.09 183.98 C 321.62 188.05 327.84 191.33 332.50 196.47 C 336.37 200.57 340.89 204.10 344.07 208.81 C 348.25 215.38 353.71 221.31 356.00 228.92 C 359.20 231.32 358.65 235.86 361.39 238.60 C 361.62 242.57 361.99 247.07 365.44 249.66 C 365.65 253.79 365.14 257.99 366.33 262.01 C 366.16 266.96 367.99 271.57 369.26 276.27 C 370.51 281.45 367.06 286.10 366.59 291.13 C 366.53 295.48 365.07 299.67 365.52 304.06 C 365.99 306.65 363.65 308.33 362.59 310.43 C 362.12 312.78 362.97 315.36 361.72 317.53 C 358.39 324.01 355.56 330.73 351.89 337.03 C 350.55 340.70 347.53 343.26 345.16 346.24 C 341.76 350.50 339.28 355.51 335.10 359.12 C 330.61 363.76 324.60 366.50 319.99 371.00 C 317.25 373.75 313.52 375.15 310.23 377.10 C 306.65 379.25 302.01 379.82 299.54 383.51 C 297.36 383.53 295.17 383.48 293.00 383.61 C 291.29 384.63 289.88 386.04 288.26 387.18 C 285.91 387.72 283.45 387.21 281.06 387.53 C 278.38 388.61 275.99 390.79 272.92 390.53 C 261.64 390.58 250.36 390.58 239.08 390.53 C 236.62 390.77 234.58 389.32 232.49 388.28 C 229.87 386.58 226.60 387.97 223.74 387.19 C 222.12 386.05 220.70 384.63 219.01 383.61 C 216.82 383.48 214.64 383.54 212.46 383.51 C 211.66 382.62 210.88 381.72 209.99 380.94 C 203.02 377.58 195.43 374.77 189.93 369.12 C 185.49 365.11 179.97 362.54 175.57 358.53 C 170.95 352.46 166.94 345.91 161.83 340.21 C 159.49 335.06 156.64 330.16 153.84 325.24 C 152.80 322.30 151.31 319.58 149.77 316.89 C 149.44 314.75 149.59 312.57 149.51 310.42 C 148.37 309.04 146.19 308.02 146.52 305.94 C 146.92 300.96 145.55 296.16 145.39 291.22 C 144.68 285.90 141.21 280.76 142.94 275.29 C 145.67 267.47 146.63 259.19 146.53 250.94 C 147.81 248.66 149.63 246.60 149.95 243.91 C 150.81 235.43 156.05 228.27 159.92 220.88 C 161.71 216.94 164.94 213.93 167.15 210.25 C 171.09 203.67 177.31 199.03 182.48 193.51 C 190.02 187.43 198.34 182.38 206.91 177.96 C 208.78 177.36 210.17 175.96 211.47 174.56 C 214.91 174.93 218.38 174.55 220.50 171.48 C 222.65 171.44 224.81 171.49 226.96 171.36 M 238.73 212.47 C 236.01 212.90 232.95 211.91 230.65 213.84 C 227.13 216.43 223.12 218.25 219.09 219.91 C 216.69 220.68 215.30 222.90 213.52 224.53 C 211.26 226.99 208.11 228.48 206.12 231.21 C 202.53 236.15 197.30 239.99 195.12 245.86 C 194.47 247.79 192.98 249.21 191.57 250.60 C 191.54 252.38 191.56 254.17 191.37 255.95 C 189.62 259.01 186.52 262.17 187.88 265.99 C 189.46 269.99 187.31 273.95 187.43 277.99 C 187.01 282.73 189.53 287.34 188.01 292.05 C 186.69 295.35 189.51 298.20 191.24 300.72 C 191.86 302.89 190.92 305.51 192.63 307.30 C 195.65 310.90 197.01 315.49 199.58 319.36 C 204.14 324.16 208.87 328.79 213.49 333.53 C 217.00 337.12 222.10 338.24 225.93 341.40 C 229.25 341.18 231.53 343.61 234.11 345.26 C 236.75 345.93 239.65 344.86 242.16 346.09 C 248.59 349.02 255.84 348.89 262.72 348.23 C 266.64 347.88 270.01 345.15 273.99 345.49 C 278.66 346.27 281.67 341.71 286.17 341.23 C 290.40 337.96 295.92 336.63 299.52 332.52 C 303.79 328.10 308.20 323.82 312.42 319.35 C 314.99 315.48 316.36 310.90 319.37 307.30 C 321.08 305.51 320.11 302.90 320.78 300.74 C 322.20 298.62 323.84 296.56 324.40 294.02 C 321.86 287.09 326.22 279.99 323.96 273.00 C 322.74 269.65 324.41 266.31 324.46 262.95 C 323.71 260.51 321.68 258.81 320.62 256.56 C 320.48 255.02 320.53 253.48 320.43 251.95 C 319.19 249.66 317.17 247.78 316.56 245.18 C 316.07 242.51 313.70 240.89 312.08 238.92 C 308.43 235.18 306.04 230.23 301.59 227.30 C 298.02 224.82 295.78 220.55 291.38 219.33 C 288.12 217.00 284.04 216.13 281.05 213.42 C 278.58 213.36 276.11 213.36 273.64 213.32 C 271.49 211.48 269.07 209.32 266.05 209.50 C 259.35 209.44 252.65 209.41 245.95 209.51 C 243.19 209.34 241.17 211.57 238.73 212.47 Z" />
<path fill="#ffffff" opacity="1.00" d=" M 417.76 188.83 C 423.43 187.27 429.33 189.42 433.22 193.67 C 435.46 197.68 438.73 202.01 437.13 206.86 C 435.30 209.74 432.94 212.26 431.26 215.24 C 426.22 217.38 420.63 218.50 415.34 216.49 C 407.49 212.74 406.55 201.62 410.75 194.76 C 412.98 192.66 415.40 190.77 417.76 188.83 Z" />
</g>
</svg>
