<?xml version="1.0" encoding="UTF-8" ?>
<!DOCTYPE svg PUBLIC "-//W3C//DTD SVG 1.1//EN" "http://www.w3.org/Graphics/SVG/1.1/DTD/svg11.dtd">
<svg width="512pt" height="512pt" viewBox="0 0 512 512" version="1.1" xmlns="http://www.w3.org/2000/svg">
<g id="#ffffffff">
<path fill="#ffffff" opacity="1.00" d=" M 406.41 60.48 C 412.78 60.01 419.18 60.19 425.57 60.42 C 427.79 63.90 431.53 65.44 435.25 66.77 C 438.37 68.92 440.58 72.09 443.40 74.59 C 446.16 77.27 449.07 80.07 450.29 83.84 C 451.12 86.69 453.45 88.57 455.59 90.45 C 455.85 97.02 455.92 103.60 455.51 110.16 C 452.96 111.64 450.32 113.43 449.33 116.37 C 446.71 123.64 442.21 130.31 436.12 135.11 C 418.94 151.32 400.87 166.50 383.87 182.87 C 378.40 187.06 374.00 192.41 368.87 196.98 C 365.52 199.90 362.82 203.47 359.51 206.43 C 359.69 209.45 358.80 212.86 360.76 215.46 C 361.89 217.37 363.23 219.16 364.35 221.08 C 364.83 224.90 364.29 228.77 364.64 232.61 C 365.41 236.63 367.00 240.47 369.35 243.83 C 371.42 246.46 370.28 249.96 370.54 253.04 C 370.09 258.36 372.41 263.44 375.27 267.79 C 377.38 270.40 376.25 273.92 376.52 276.99 C 376.18 283.69 379.48 289.82 383.35 295.04 C 383.85 300.04 383.00 305.10 383.66 310.09 C 385.22 313.12 387.48 315.69 389.30 318.55 C 389.96 323.99 388.88 329.54 389.75 334.96 C 391.35 337.61 393.56 339.81 395.27 342.39 C 395.84 347.23 395.16 352.14 395.48 357.02 C 395.89 362.00 402.25 364.67 401.51 369.94 C 401.49 374.32 401.26 378.71 401.58 383.09 C 403.12 386.30 405.61 388.91 407.32 392.01 C 407.80 397.12 407.04 402.30 407.63 407.42 C 409.28 410.60 412.12 412.94 413.91 416.04 C 405.85 424.27 397.61 432.32 389.53 440.53 C 388.13 441.95 386.74 443.44 384.95 444.39 C 382.67 445.02 380.51 443.49 379.29 441.69 C 376.67 437.66 374.83 433.20 372.90 428.83 C 371.66 425.92 368.81 424.24 366.78 421.96 C 366.30 419.91 366.90 417.47 365.00 416.00 C 360.32 411.58 356.89 405.90 354.88 399.81 C 353.90 396.56 350.29 395.18 348.92 392.16 C 346.20 386.45 343.65 380.43 339.13 375.87 C 336.35 373.17 337.19 368.47 333.97 366.05 C 327.55 360.84 327.19 351.45 321.13 345.94 C 318.39 343.54 318.60 339.43 316.07 336.93 C 312.48 332.98 309.31 328.48 307.69 323.35 C 306.29 318.19 300.37 315.81 299.63 310.32 C 296.62 304.57 290.98 300.20 289.35 293.63 C 288.40 288.82 283.97 285.77 280.01 283.45 C 279.51 283.45 278.50 283.46 278.00 283.46 C 272.30 287.15 267.84 292.32 262.96 296.96 C 255.18 304.16 247.62 311.59 240.06 319.01 C 237.57 322.17 235.03 325.30 232.07 328.06 C 226.37 333.36 221.22 339.24 215.22 344.22 C 210.56 348.22 206.53 352.89 201.70 356.70 C 198.19 359.51 195.39 363.10 191.77 365.78 C 187.93 368.56 185.03 372.39 181.27 375.27 C 178.50 377.56 175.51 379.79 173.54 382.86 C 173.31 393.38 173.83 403.93 173.32 414.44 C 171.78 418.49 173.14 422.91 171.97 427.02 C 171.45 428.72 171.58 430.53 171.40 432.30 C 169.65 437.97 171.51 444.21 168.40 449.56 C 167.45 449.56 165.56 449.55 164.62 449.55 C 161.89 446.86 159.72 443.68 156.99 441.01 C 132.82 416.85 108.66 392.68 84.48 368.52 C 78.62 362.65 72.90 356.63 66.46 351.39 C 66.49 349.82 66.50 348.25 66.47 346.69 C 70.57 345.87 74.65 345.35 78.84 345.39 C 81.95 344.22 85.34 344.84 88.47 343.81 C 92.42 343.05 96.58 344.14 100.44 342.72 C 110.59 342.14 120.79 342.70 130.95 342.40 C 133.74 341.84 136.36 340.25 137.91 337.81 C 141.39 332.77 146.49 329.16 150.14 324.26 C 153.12 320.25 157.14 317.19 160.31 313.34 C 164.90 307.32 170.95 302.62 175.55 296.60 C 182.56 290.59 187.89 282.86 195.36 277.34 C 202.83 270.22 209.95 262.73 216.91 255.10 C 222.39 249.65 227.74 244.04 232.54 237.98 C 232.95 234.90 229.90 232.97 228.35 230.66 C 226.46 227.92 222.93 227.88 220.02 227.09 C 217.69 225.02 215.98 222.10 212.94 220.97 C 209.08 219.24 205.38 217.20 201.57 215.37 C 199.42 213.88 197.95 211.62 196.00 209.89 C 194.12 209.38 192.17 209.12 190.31 208.51 C 183.89 205.63 179.59 198.89 172.45 197.45 C 169.68 196.50 168.81 193.10 166.19 191.90 C 159.16 189.04 151.77 185.74 147.10 179.48 C 145.58 179.50 144.05 179.52 142.53 179.57 C 140.48 177.58 138.73 175.25 136.36 173.62 C 132.32 171.62 128.29 169.60 124.22 167.67 C 121.38 166.36 120.08 163.01 117.32 161.68 C 110.44 160.39 104.93 155.70 99.88 151.15 C 98.07 150.01 95.78 149.93 93.79 149.17 C 91.47 147.18 90.01 144.02 86.89 143.12 C 82.41 141.53 78.27 139.14 74.09 136.92 C 71.80 135.80 71.40 133.05 71.36 130.77 C 80.73 121.07 90.40 111.64 99.94 102.10 C 102.96 103.76 105.19 106.46 108.08 108.29 C 113.19 108.95 118.38 108.12 123.51 108.64 C 126.42 110.29 128.81 112.68 131.70 114.37 C 136.81 114.82 141.95 114.22 147.07 114.59 C 150.06 116.31 152.59 118.73 155.64 120.36 C 160.71 120.96 165.88 120.01 170.93 120.75 C 173.70 122.40 176.12 124.57 178.85 126.28 C 183.87 126.97 188.97 126.19 194.02 126.57 C 197.18 128.25 199.82 130.74 203.00 132.40 C 208.17 132.85 213.37 132.22 218.54 132.62 C 221.63 134.14 223.67 137.28 226.98 138.46 C 232.06 138.88 237.21 138.05 242.26 138.75 C 245.18 140.63 247.75 143.08 250.97 144.45 C 255.81 144.82 260.68 144.24 265.52 144.62 C 268.59 146.13 270.79 149.06 273.99 150.43 C 279.13 150.91 284.32 150.10 289.45 150.72 C 292.33 152.55 294.89 154.90 298.01 156.37 C 301.93 156.55 305.93 156.88 309.83 156.29 C 313.19 152.84 316.92 149.76 320.04 146.08 C 324.13 141.50 328.92 137.57 332.69 132.70 C 336.26 128.28 340.80 124.77 344.29 120.28 C 347.74 115.76 352.32 112.26 355.61 107.60 C 364.88 97.86 373.40 87.43 382.89 77.89 C 387.70 72.35 394.11 68.31 401.07 66.08 C 403.74 65.23 404.46 62.19 406.41 60.48 Z" />
</g>
</svg>
