<?xml version="1.0" encoding="UTF-8" ?>
<!DOCTYPE svg PUBLIC "-//W3C//DTD SVG 1.1//EN" "http://www.w3.org/Graphics/SVG/1.1/DTD/svg11.dtd">
<svg width="128pt" height="128pt" viewBox="0 0 128 128" version="1.1" xmlns="http://www.w3.org/2000/svg">
<g id="#000000ff">
<path fill="#000000" opacity="1.00" d=" M 21.35 3.38 C 48.57 3.21 75.79 3.39 103.01 3.29 C 106.64 3.22 110.38 3.60 113.66 5.28 C 120.26 8.47 124.75 15.67 124.57 23.01 C 124.52 50.69 124.58 78.36 124.54 106.03 C 124.25 116.06 115.04 124.82 105.00 124.58 C 77.65 124.58 50.30 124.57 22.95 124.59 C 15.15 124.74 7.58 119.66 4.71 112.42 C 3.18 108.83 3.26 104.88 3.30 101.07 C 3.36 74.69 3.25 48.32 3.35 21.94 C 3.41 12.33 11.76 3.76 21.35 3.38 M 47.47 24.10 C 46.47 30.11 45.66 36.15 44.61 42.15 C 38.68 42.18 32.76 42.15 26.83 42.17 C 26.83 46.17 26.83 50.18 26.83 54.18 C 32.20 54.20 37.56 54.15 42.92 54.22 C 42.03 59.96 41.01 65.67 40.19 71.42 C 34.38 71.44 28.56 71.40 22.75 71.45 C 22.78 75.54 22.78 79.63 22.77 83.72 C 27.93 83.72 33.08 83.72 38.24 83.72 C 37.13 89.84 36.20 96.00 35.18 102.14 C 40.34 102.13 45.49 102.15 50.65 102.12 C 51.57 95.89 52.60 89.68 53.69 83.49 C 57.03 83.47 60.37 83.50 63.71 83.53 C 66.98 89.58 70.24 95.64 73.49 101.69 C 78.87 101.76 84.26 101.77 89.64 101.81 C 86.26 95.81 83.18 89.64 79.70 83.70 C 86.51 83.74 93.32 83.72 100.13 83.72 C 100.10 79.60 100.20 75.48 100.04 71.37 C 95.73 71.48 91.43 71.39 87.13 71.45 C 89.39 66.01 90.20 60.05 89.68 54.19 C 94.51 54.18 99.34 54.19 104.18 54.18 C 104.18 50.18 104.18 46.17 104.18 42.17 C 99.43 42.16 94.68 42.16 89.92 42.16 C 91.01 36.11 91.99 30.03 92.89 23.94 C 87.76 24.20 82.63 23.93 77.50 24.08 C 76.50 30.09 75.59 36.12 74.64 42.15 C 69.77 42.17 64.91 42.16 60.05 42.17 C 60.98 36.15 61.83 30.12 63.02 24.16 C 57.84 23.89 52.65 24.04 47.47 24.10 Z" />
<path fill="#000000" opacity="1.00" d=" M 58.26 54.25 C 62.64 54.40 67.12 53.70 71.43 54.66 C 74.50 55.68 74.43 59.43 74.03 62.05 C 73.56 65.47 72.67 69.87 68.90 71.06 C 64.47 71.85 59.93 71.26 55.45 71.41 C 56.59 65.73 57.42 59.98 58.26 54.25 Z" />
</g>
</svg>
