<?xml version="1.0" encoding="UTF-8" ?>
<!DOCTYPE svg PUBLIC "-//W3C//DTD SVG 1.1//EN" "http://www.w3.org/Graphics/SVG/1.1/DTD/svg11.dtd">
<svg width="128pt" height="128pt" viewBox="0 0 128 128" version="1.1" xmlns="http://www.w3.org/2000/svg">
<g id="#000000ff">
<path fill="#000000" opacity="1.00" d=" M 42.51 2.16 C 48.66 -0.29 54.68 4.04 59.53 7.41 C 70.05 7.42 80.50 10.18 89.62 15.41 C 97.79 20.18 105.68 26.15 110.65 34.36 C 112.94 38.19 114.57 43.58 111.43 47.41 C 107.53 51.64 101.21 51.88 95.85 51.67 C 83.37 50.81 71.46 46.42 60.10 41.43 C 50.64 44.14 41.23 49.72 37.06 59.02 C 32.87 69.42 33.38 81.96 39.47 91.52 C 43.55 98.07 49.94 102.84 56.88 106.03 C 51.74 101.23 47.40 95.29 46.62 88.10 C 54.30 95.82 62.94 102.98 73.31 106.71 C 81.18 109.63 89.82 109.24 97.98 107.95 C 94.14 107.33 90.16 107.09 86.55 105.51 C 83.36 104.21 80.68 101.99 77.96 99.94 C 92.01 99.04 105.43 92.29 114.98 82.02 C 108.84 86.59 101.34 89.01 93.65 88.39 C 98.83 84.34 103.80 79.92 107.51 74.45 C 115.54 63.09 119.88 48.11 115.04 34.58 C 120.09 40.06 122.50 47.61 121.89 55.01 C 121.74 62.43 118.31 69.18 114.35 75.25 C 120.63 70.31 124.30 63.05 128.00 56.15 L 128.00 68.51 C 126.16 78.90 120.34 88.52 111.90 94.87 C 109.37 96.71 106.59 98.17 103.93 99.81 C 112.65 98.55 120.03 93.39 127.02 88.37 C 120.26 105.59 105.03 119.45 87.00 123.92 C 79.92 125.60 72.48 126.45 65.28 125.04 C 65.96 125.50 66.65 125.96 67.34 126.42 C 70.89 126.08 74.47 126.05 78.02 126.42 C 73.43 126.44 68.85 126.50 64.28 126.92 L 64.97 125.47 C 40.79 122.84 17.87 106.99 8.94 84.05 C 7.02 78.81 2.09 75.50 0.00 70.35 L 0.00 67.41 C 1.44 65.06 3.40 62.77 3.58 59.91 C 3.49 55.08 0.55 50.77 0.64 45.92 C 1.57 40.56 7.19 38.27 10.17 34.25 C 12.55 29.55 9.95 23.52 13.19 19.12 C 16.62 15.03 22.47 15.82 27.09 14.36 C 33.46 11.95 35.92 4.27 42.51 2.16 M 78.40 27.43 C 74.83 28.76 77.79 34.26 80.91 32.26 C 84.03 30.71 81.36 25.84 78.40 27.43 Z" />
</g>
</svg>
