<?xml version="1.0" encoding="UTF-8" ?>
<!DOCTYPE svg PUBLIC "-//W3C//DTD SVG 1.1//EN" "http://www.w3.org/Graphics/SVG/1.1/DTD/svg11.dtd">
<svg width="128pt" height="128pt" viewBox="0 0 128 128" version="1.1" xmlns="http://www.w3.org/2000/svg">
<g id="#000000ff">
<path fill="#000000" opacity="1.00" d=" M 41.70 10.71 C 51.37 6.63 62.09 5.54 72.47 6.80 C 61.46 26.36 50.54 45.97 39.55 65.55 C 37.83 68.66 36.25 71.88 34.18 74.78 C 36.58 53.41 39.30 32.08 41.70 10.71 Z" />
<path fill="#000000" opacity="1.00" d=" M 75.65 7.39 C 86.35 9.67 96.28 14.99 104.24 22.47 C 83.57 41.29 63.30 60.55 42.56 79.28 C 53.48 55.27 64.67 31.37 75.65 7.39 Z" />
<path fill="#000000" opacity="1.00" d=" M 16.32 31.19 C 21.73 23.65 28.77 17.34 36.92 12.88 C 33.01 33.20 28.80 53.47 24.94 73.79 C 21.82 59.65 19.33 45.36 16.32 31.19 Z" />
<path fill="#000000" opacity="1.00" d=" M 49.38 85.93 C 68.03 65.17 87.32 44.97 106.08 24.30 C 113.46 32.37 118.58 42.35 120.84 53.05 C 97.00 63.96 73.26 75.11 49.38 85.93 Z" />
<path fill="#000000" opacity="1.00" d=" M 6.34 58.85 C 7.21 52.44 8.51 45.97 11.41 40.14 C 12.90 51.68 14.14 63.26 15.58 74.81 C 12.08 69.75 9.55 64.10 6.34 58.85 Z" />
<path fill="#000000" opacity="1.00" d=" M 53.51 94.36 C 76.06 81.59 98.76 69.07 121.33 56.32 C 122.50 66.67 121.24 77.29 117.13 86.89 C 95.92 89.35 74.74 92.06 53.51 94.36 Z" />
<path fill="#000000" opacity="1.00" d=" M 67.89 101.09 C 83.54 97.94 99.22 94.92 114.86 91.72 C 110.27 99.74 104.00 106.81 96.34 112.01 C 82.76 109.23 69.14 106.63 55.55 103.87 C 59.54 102.44 63.76 101.97 67.89 101.09 Z" />
<path fill="#000000" opacity="1.00" d=" M 53.74 113.18 C 64.90 114.04 75.99 115.76 87.13 116.96 C 81.38 119.68 75.11 120.95 68.84 121.71 C 63.85 118.78 58.68 116.19 53.74 113.18 Z" />
</g>
</svg>
