<?xml version="1.0" encoding="UTF-8" ?>
<!DOCTYPE svg PUBLIC "-//W3C//DTD SVG 1.1//EN" "http://www.w3.org/Graphics/SVG/1.1/DTD/svg11.dtd">
<svg width="512pt" height="512pt" viewBox="0 0 512 512" version="1.1" xmlns="http://www.w3.org/2000/svg">
<g id="#ffffffff">
<path fill="#ffffff" opacity="1.00" d=" M 335.12 82.57 C 341.02 82.23 346.93 82.25 352.83 82.58 C 352.65 83.03 352.29 83.94 352.10 84.39 C 353.70 84.45 355.29 84.50 356.89 84.55 L 356.20 85.44 C 357.33 85.48 358.46 85.53 359.59 85.58 C 359.53 86.10 359.39 87.13 359.33 87.65 C 359.82 87.31 360.80 86.63 361.29 86.29 L 361.33 87.89 C 361.86 87.81 362.94 87.65 363.48 87.57 C 363.41 88.11 363.26 89.18 363.19 89.72 L 364.69 89.12 L 364.24 90.45 C 365.06 90.50 366.70 90.61 367.51 90.67 C 367.47 91.14 367.39 92.08 367.35 92.55 C 367.92 92.53 369.07 92.50 369.65 92.48 L 369.29 93.90 L 370.70 93.39 C 370.62 93.92 370.45 94.99 370.37 95.53 L 371.82 95.33 L 371.45 96.86 C 371.91 96.75 372.81 96.53 373.27 96.41 C 373.33 97.26 373.45 98.94 373.51 99.78 L 374.80 99.34 L 374.35 100.96 C 374.81 100.84 375.72 100.60 376.18 100.48 C 376.30 101.67 376.54 104.06 376.66 105.25 L 377.63 102.66 C 377.56 103.42 377.43 104.94 377.36 105.70 L 378.57 105.27 C 378.55 106.16 378.52 107.96 378.50 108.86 L 379.49 108.15 C 379.46 109.11 379.41 111.01 379.38 111.96 L 380.38 111.17 C 380.61 116.75 380.63 122.34 380.42 127.92 L 379.48 127.08 C 379.45 128.65 379.43 130.23 379.41 131.80 L 378.49 131.12 C 378.49 132.03 378.49 133.84 378.49 134.74 L 377.15 134.14 L 377.73 135.70 L 376.16 135.43 C 376.31 135.97 376.60 137.06 376.75 137.60 L 375.92 137.20 C 375.52 137.65 374.73 138.54 374.33 138.99 L 374.89 139.88 L 373.29 139.47 C 373.42 139.99 373.68 141.03 373.81 141.55 L 372.27 141.49 C 372.38 141.99 372.60 142.99 372.71 143.49 L 370.97 143.52 C 371.17 143.98 371.57 144.90 371.77 145.35 C 370.92 145.41 370.07 145.47 369.23 145.52 L 369.71 146.83 C 369.15 146.74 368.03 146.57 367.47 146.49 C 367.51 146.98 367.60 147.95 367.65 148.44 C 366.85 148.51 365.26 148.64 364.46 148.71 L 364.51 150.89 C 364.07 150.48 363.18 149.66 362.74 149.25 C 362.70 149.88 362.62 151.12 362.58 151.74 C 362.04 151.67 360.98 151.53 360.44 151.46 L 360.66 152.80 C 360.12 152.71 359.04 152.54 358.50 152.46 C 358.53 152.97 358.60 153.99 358.63 154.50 C 357.77 154.51 356.03 154.51 355.17 154.51 L 355.80 155.45 C 354.24 155.45 352.69 155.46 351.15 155.48 L 351.84 156.44 C 346.58 156.60 341.33 156.62 336.08 156.45 L 336.90 155.51 C 335.31 155.49 333.73 155.47 332.14 155.45 L 332.84 154.54 C 331.96 154.54 330.19 154.54 329.31 154.54 C 329.34 154.03 329.42 153.02 329.45 152.51 C 328.89 152.61 327.75 152.79 327.19 152.89 L 327.69 151.73 C 326.85 151.65 325.18 151.50 324.35 151.42 C 324.41 150.94 324.53 149.97 324.59 149.49 C 323.99 149.55 322.80 149.67 322.20 149.73 L 322.69 148.51 C 322.09 148.53 320.90 148.56 320.30 148.58 C 320.35 148.11 320.43 147.18 320.48 146.71 C 319.74 146.65 318.27 146.54 317.54 146.48 C 317.46 145.74 317.29 144.25 317.21 143.51 C 316.80 143.58 315.96 143.73 315.55 143.80 C 315.46 142.98 315.29 141.35 315.20 140.53 C 314.77 140.59 313.92 140.69 313.49 140.75 C 313.47 140.15 313.43 138.96 313.42 138.36 C 312.98 138.44 312.10 138.59 311.67 138.66 C 311.60 137.81 311.46 136.11 311.39 135.26 C 310.95 135.36 310.07 135.56 309.63 135.65 C 309.59 134.78 309.50 133.03 309.46 132.15 L 308.69 132.88 C 308.56 130.92 308.66 128.83 307.54 127.10 C 307.48 125.43 307.43 123.76 307.42 122.10 L 306.53 122.91 C 306.57 120.63 306.58 118.35 306.56 116.07 L 307.47 116.95 C 307.46 115.02 307.50 113.08 307.51 111.15 L 308.43 111.92 C 308.51 109.47 308.67 107.03 308.80 104.59 C 309.24 104.66 310.10 104.78 310.54 104.84 C 310.61 104.02 310.77 102.36 310.85 101.54 C 311.30 101.63 312.20 101.81 312.65 101.90 L 312.09 100.33 L 313.67 100.78 L 313.14 99.21 L 314.42 99.72 C 314.48 98.88 314.59 97.21 314.65 96.37 L 315.91 96.75 C 315.83 96.22 315.68 95.15 315.60 94.62 C 316.12 94.64 317.15 94.68 317.66 94.70 L 317.33 93.29 L 318.88 93.58 C 318.78 93.13 318.59 92.24 318.49 91.79 C 319.29 91.70 320.89 91.51 321.69 91.41 C 321.65 90.97 321.57 90.08 321.54 89.63 C 322.08 89.69 323.18 89.80 323.72 89.86 L 323.56 88.38 C 324.05 88.48 325.04 88.69 325.53 88.79 L 325.54 87.18 C 326.05 87.37 327.07 87.73 327.59 87.91 L 327.25 86.34 L 328.71 86.87 L 328.45 85.31 C 329.02 85.44 330.16 85.69 330.73 85.81 L 330.16 84.63 C 332.07 84.54 333.96 84.44 335.87 84.35 C 335.69 83.90 335.31 83.01 335.12 82.57 Z" />
<path fill="#ffffff" opacity="1.00" d=" M 212.25 138.50 C 236.80 138.41 261.36 138.32 285.92 138.55 L 285.11 139.47 C 286.63 139.49 288.16 139.51 289.68 139.54 L 289.37 140.88 C 289.92 140.70 291.03 140.35 291.58 140.18 L 291.48 141.74 C 292.00 141.59 293.06 141.30 293.58 141.15 L 293.29 142.67 L 294.79 142.32 L 294.48 143.89 C 295.01 143.68 296.07 143.25 296.60 143.03 L 296.23 144.03 C 296.67 144.43 297.54 145.22 297.98 145.61 L 298.86 145.24 L 298.45 146.74 C 298.93 146.63 299.89 146.42 300.37 146.31 C 300.48 147.04 300.68 148.49 300.78 149.22 C 301.50 149.31 302.95 149.48 303.67 149.56 C 303.62 150.05 303.53 151.03 303.48 151.52 C 304.02 151.48 305.09 151.41 305.63 151.37 L 305.29 152.81 L 306.77 152.25 L 306.15 153.93 L 307.05 153.26 C 307.48 153.68 308.34 154.51 308.78 154.93 L 308.28 155.74 C 308.83 155.67 309.92 155.52 310.47 155.45 C 310.45 155.99 310.43 157.07 310.42 157.61 C 310.95 157.58 312.00 157.51 312.52 157.47 C 312.51 158.01 312.47 159.08 312.46 159.62 C 312.98 159.56 314.03 159.44 314.55 159.38 L 314.22 160.82 L 315.69 160.40 C 315.63 160.92 315.51 161.96 315.45 162.49 C 316.00 162.45 317.12 162.38 317.68 162.35 L 317.26 163.13 C 317.68 163.55 318.54 164.38 318.96 164.79 L 319.91 164.09 L 319.27 165.77 L 320.76 165.27 L 320.37 166.70 C 320.90 166.64 321.97 166.52 322.51 166.46 C 322.46 166.96 322.38 167.96 322.34 168.46 C 323.06 168.54 324.50 168.70 325.22 168.78 C 325.32 169.50 325.51 170.94 325.60 171.65 C 326.08 171.59 327.02 171.45 327.49 171.39 C 327.51 171.93 327.54 173.00 327.56 173.54 C 328.05 173.51 329.03 173.45 329.52 173.42 L 329.48 174.96 C 329.91 174.83 330.79 174.58 331.22 174.45 C 331.34 175.23 331.57 176.79 331.69 177.57 C 332.16 177.48 333.11 177.30 333.59 177.22 L 333.22 178.78 L 334.04 178.22 C 334.46 178.64 335.31 179.49 335.73 179.92 L 335.22 180.77 L 336.78 180.18 L 336.16 181.79 L 337.08 181.20 C 337.50 181.62 338.35 182.47 338.78 182.90 L 338.36 183.70 C 338.89 183.63 339.94 183.49 340.47 183.42 C 340.47 183.97 340.47 185.05 340.46 185.60 C 341.00 185.54 342.06 185.42 342.60 185.36 L 342.45 186.86 C 342.99 186.69 344.08 186.35 344.62 186.18 L 344.15 187.54 C 345.06 187.52 346.87 187.48 347.77 187.46 L 347.38 186.06 C 347.92 186.24 348.98 186.61 349.51 186.79 L 349.10 185.21 L 349.93 185.60 C 350.90 184.16 352.10 182.90 353.54 181.92 C 353.54 181.56 353.54 180.83 353.54 180.46 C 354.06 180.51 355.09 180.60 355.60 180.64 L 355.22 179.26 L 356.61 179.61 C 356.58 179.08 356.51 178.01 356.48 177.48 C 357.01 177.51 358.08 177.59 358.61 177.62 L 358.15 176.24 L 359.58 176.59 C 359.56 176.05 359.52 174.96 359.50 174.42 C 360.02 174.48 361.05 174.60 361.57 174.66 L 361.16 173.30 L 362.56 173.57 C 362.55 173.03 362.52 171.94 362.51 171.39 C 362.91 171.46 363.70 171.60 364.10 171.67 C 364.71 170.58 365.32 169.49 365.93 168.41 C 366.33 168.47 367.13 168.59 367.53 168.65 C 367.52 168.10 367.49 166.99 367.48 166.44 L 368.87 166.79 L 368.45 165.45 C 368.98 165.48 370.02 165.55 370.55 165.58 C 370.51 165.09 370.45 164.10 370.41 163.61 C 371.11 163.51 372.51 163.32 373.21 163.22 C 373.31 162.50 373.52 161.05 373.62 160.32 C 374.10 160.41 375.05 160.58 375.53 160.67 L 375.16 159.25 L 376.62 159.51 C 376.55 159.04 376.41 158.10 376.34 157.63 C 377.05 157.53 378.49 157.31 379.21 157.21 C 379.30 156.50 379.49 155.08 379.59 154.37 L 381.01 154.91 L 380.44 153.96 C 382.39 153.53 383.69 152.37 384.33 150.46 C 384.48 151.19 384.79 152.64 384.95 153.36 C 385.14 152.42 385.51 150.54 385.69 149.60 C 387.73 149.47 389.77 149.33 391.82 149.26 C 391.66 148.87 391.35 148.07 391.19 147.68 C 394.22 147.54 397.27 147.49 400.31 147.65 L 398.91 148.90 C 400.52 148.68 402.14 148.51 403.76 148.39 L 403.10 149.48 C 403.98 149.51 405.72 149.55 406.59 149.57 C 406.54 150.07 406.45 151.05 406.40 151.54 C 406.95 151.51 408.06 151.45 408.61 151.42 L 408.38 152.76 C 408.91 152.66 409.97 152.47 410.50 152.38 C 410.50 152.91 410.50 153.99 410.50 154.53 C 411.02 154.51 412.04 154.46 412.56 154.44 C 412.51 154.99 412.41 156.07 412.36 156.61 L 413.78 156.38 C 413.70 156.89 413.56 157.91 413.49 158.42 C 414.01 158.44 415.07 158.48 415.59 158.50 C 415.50 159.04 415.32 160.12 415.23 160.66 L 416.75 160.44 C 416.61 161.00 416.31 162.13 416.16 162.69 L 417.56 162.07 C 418.02 167.44 417.74 172.81 417.55 178.18 L 416.25 173.89 L 416.67 177.75 L 415.49 177.26 C 415.47 178.09 415.42 179.73 415.39 180.56 C 414.91 180.52 413.93 180.44 413.45 180.39 C 413.49 180.95 413.58 182.05 413.63 182.60 L 412.11 182.45 C 412.26 182.96 412.56 183.97 412.71 184.47 L 411.22 184.19 L 411.53 185.68 C 411.05 185.59 410.09 185.40 409.61 185.31 C 409.51 186.11 409.31 187.71 409.21 188.51 C 408.76 188.39 407.86 188.15 407.42 188.02 L 407.58 189.60 L 406.01 189.40 C 406.13 189.86 406.38 190.77 406.50 191.23 C 405.76 191.31 404.28 191.47 403.55 191.55 C 403.48 192.22 403.34 193.55 403.27 194.22 C 402.53 194.33 401.06 194.54 400.32 194.64 C 400.44 195.12 400.67 196.08 400.78 196.56 L 399.28 196.16 L 399.59 197.65 L 398.01 197.37 C 398.13 197.84 398.36 198.76 398.47 199.23 C 397.74 199.31 396.27 199.48 395.53 199.57 C 395.47 200.25 395.35 201.61 395.29 202.30 C 394.61 202.36 393.24 202.49 392.56 202.56 C 392.49 203.23 392.35 204.59 392.28 205.26 C 391.56 205.35 390.12 205.52 389.40 205.61 C 389.46 206.09 389.58 207.05 389.63 207.53 C 389.09 207.53 387.99 207.53 387.44 207.53 C 387.49 208.05 387.57 209.10 387.61 209.62 L 386.15 209.27 L 386.60 210.71 C 386.08 210.64 385.04 210.49 384.51 210.41 C 384.52 210.96 384.54 212.06 384.55 212.61 L 383.14 212.26 L 383.60 213.69 C 383.07 213.62 382.02 213.47 381.50 213.39 C 381.51 213.95 381.55 215.08 381.56 215.64 L 380.13 215.27 L 380.63 216.67 C 380.09 216.61 379.00 216.51 378.46 216.46 C 378.51 216.99 378.60 218.06 378.64 218.59 L 377.21 218.22 L 377.62 219.61 C 377.07 219.58 375.98 219.50 375.43 219.46 C 375.49 220.01 375.60 221.09 375.66 221.63 L 374.27 221.14 L 374.60 222.61 C 374.08 222.57 373.03 222.50 372.50 222.46 C 372.52 223.00 372.56 224.07 372.58 224.61 C 372.17 224.58 371.35 224.52 370.93 224.49 C 370.33 225.56 369.73 226.63 369.13 227.70 C 368.72 227.62 367.89 227.46 367.48 227.38 C 367.52 227.94 367.59 229.06 367.62 229.63 L 366.19 229.25 L 366.64 230.66 C 366.10 230.61 365.01 230.52 364.46 230.47 C 364.51 231.00 364.61 232.08 364.65 232.62 L 363.23 232.21 L 363.62 233.65 C 363.08 233.60 362.01 233.50 361.47 233.45 C 361.51 233.99 361.60 235.08 361.64 235.63 L 360.19 235.26 L 360.60 236.69 C 360.08 236.61 359.04 236.44 358.52 236.36 C 358.51 236.93 358.48 238.06 358.47 238.63 C 357.96 238.54 356.94 238.37 356.43 238.28 L 356.51 239.79 C 355.99 239.64 354.96 239.34 354.45 239.19 L 354.64 240.72 L 353.10 240.42 C 353.21 240.86 353.43 241.76 353.55 242.21 C 351.36 242.32 349.16 242.43 346.98 242.50 L 347.77 243.40 C 345.25 243.42 342.74 243.44 340.23 243.42 L 340.97 241.99 L 339.08 243.16 L 339.70 241.79 C 337.66 241.72 335.63 241.57 333.61 241.42 C 333.52 240.77 333.35 239.47 333.26 238.82 C 331.91 238.69 330.57 238.57 329.23 238.44 L 329.93 237.24 L 328.32 237.68 L 328.72 236.14 L 327.17 236.79 L 327.77 235.84 C 327.35 235.42 326.52 234.58 326.11 234.16 L 325.15 234.82 L 325.77 233.23 L 324.14 233.87 L 324.71 232.95 C 324.30 232.52 323.48 231.67 323.07 231.24 L 322.17 231.87 L 322.75 230.24 L 321.16 230.87 L 321.73 229.96 C 321.33 229.54 320.51 228.71 320.11 228.30 L 319.18 228.84 L 319.70 227.91 C 319.28 227.48 318.44 226.62 318.02 226.19 L 317.97 226.79 C 317.52 226.35 316.62 225.47 316.17 225.03 L 316.82 224.98 C 316.38 224.55 315.50 223.70 315.06 223.27 L 314.13 223.87 L 314.82 222.24 L 313.23 222.83 L 313.75 221.93 C 313.34 221.53 312.52 220.72 312.11 220.31 L 311.17 220.84 L 311.73 219.88 C 311.31 219.48 310.48 218.66 310.06 218.26 L 309.17 218.86 L 309.83 217.11 L 308.94 217.76 C 308.50 217.32 307.62 216.46 307.18 216.02 L 307.81 215.99 C 307.37 215.55 306.50 214.67 306.06 214.23 L 305.20 214.75 L 305.67 213.13 L 304.25 213.71 C 304.31 213.15 304.43 212.04 304.49 211.49 C 304.00 211.54 303.03 211.63 302.54 211.67 C 302.41 210.74 302.15 208.88 302.02 207.95 C 301.77 209.08 301.28 211.34 301.04 212.47 C 300.77 211.38 300.24 209.20 299.98 208.11 L 299.80 209.95 L 298.41 209.64 C 298.53 210.13 298.77 211.11 298.89 211.59 L 297.30 211.19 L 297.95 212.79 L 296.99 212.28 C 296.57 212.71 295.73 213.56 295.31 213.98 L 295.87 214.85 L 294.34 214.39 C 294.39 214.92 294.49 215.99 294.53 216.52 C 293.99 216.49 292.90 216.41 292.36 216.37 L 292.78 217.78 L 291.29 217.33 L 291.81 218.83 L 290.22 218.22 L 290.80 219.11 C 290.37 219.52 289.52 220.35 289.10 220.76 L 288.29 220.34 C 288.36 220.88 288.49 221.94 288.56 222.48 C 288.03 222.46 286.96 222.42 286.43 222.41 C 286.43 222.94 286.45 224.02 286.46 224.56 C 285.93 224.50 284.87 224.37 284.34 224.30 L 284.78 225.09 C 284.36 225.52 283.54 226.38 283.12 226.80 L 282.22 226.21 L 282.83 227.81 L 281.32 227.30 L 281.77 228.82 L 280.38 228.35 C 280.41 228.90 280.48 230.00 280.52 230.55 C 279.97 230.50 278.89 230.40 278.35 230.35 L 278.86 231.70 L 277.34 231.36 L 277.75 232.86 L 276.19 232.24 L 276.80 233.12 C 276.38 233.53 275.52 234.36 275.10 234.77 L 274.31 234.34 C 274.38 234.88 274.50 235.95 274.57 236.49 C 274.03 236.48 272.95 236.45 272.41 236.44 C 272.43 236.96 272.48 238.01 272.51 238.53 C 271.98 238.50 270.94 238.42 270.42 238.38 L 270.69 239.78 L 269.24 239.44 C 269.33 239.94 269.51 240.93 269.59 241.43 C 269.04 241.44 267.94 241.46 267.39 241.47 C 267.42 242.13 267.50 243.46 267.53 244.12 C 267.24 243.50 266.66 242.25 266.37 241.63 L 266.53 244.56 L 263.73 244.31 C 264.31 244.64 265.47 245.29 266.05 245.62 C 265.38 245.54 264.02 245.39 263.35 245.31 L 263.96 246.68 L 262.38 246.30 L 262.77 247.87 L 261.59 247.04 L 261.62 248.46 L 260.49 248.65 L 260.68 250.84 L 261.85 250.28 C 261.71 250.83 261.44 251.93 261.30 252.48 C 261.87 252.49 263.01 252.50 263.58 252.51 C 263.57 253.00 263.55 253.98 263.53 254.48 C 264.04 254.47 265.05 254.45 265.56 254.44 C 265.54 254.95 265.51 255.99 265.49 256.50 C 266.00 256.48 267.03 256.45 267.55 256.43 C 267.53 256.96 267.49 258.02 267.47 258.56 C 267.86 258.53 268.65 258.48 269.05 258.46 C 269.48 259.08 270.35 260.32 270.79 260.94 L 270.38 261.56 C 270.93 261.52 272.04 261.44 272.59 261.40 C 272.56 261.94 272.50 263.01 272.47 263.54 L 273.90 263.24 L 273.41 264.60 C 273.95 264.55 275.03 264.47 275.57 264.42 C 275.53 264.96 275.45 266.04 275.41 266.58 L 276.75 266.10 L 276.45 267.49 C 277.01 267.49 278.12 267.49 278.68 267.49 C 278.61 267.88 278.47 268.67 278.40 269.07 C 279.50 269.68 280.59 270.31 281.69 270.93 C 281.57 271.32 281.32 272.09 281.19 272.47 L 282.81 272.23 L 282.43 273.59 C 282.94 273.54 283.98 273.45 284.49 273.40 C 284.50 273.94 284.52 275.04 284.53 275.58 C 285.00 275.52 285.96 275.41 286.43 275.35 C 286.52 276.07 286.69 277.53 286.78 278.26 C 287.45 278.33 288.79 278.47 289.46 278.54 C 289.53 279.21 289.68 280.55 289.75 281.22 C 290.47 281.31 291.93 281.50 292.65 281.60 C 292.59 282.07 292.45 283.00 292.38 283.47 C 292.94 283.49 294.06 283.51 294.61 283.52 C 294.56 284.04 294.45 285.08 294.39 285.60 L 295.74 285.16 L 295.50 286.72 L 297.98 286.22 L 296.05 287.72 C 296.65 287.63 297.85 287.44 298.44 287.35 C 298.47 287.90 298.51 289.01 298.53 289.57 C 299.05 289.53 300.07 289.45 300.58 289.41 C 300.54 289.95 300.47 291.03 300.43 291.56 L 301.82 291.23 L 301.42 292.63 C 301.95 292.58 303.01 292.48 303.54 292.42 C 303.51 292.97 303.44 294.05 303.40 294.59 L 304.74 294.14 L 304.42 295.56 C 304.96 295.53 306.04 295.48 306.59 295.45 C 306.54 295.98 306.44 297.04 306.39 297.57 L 307.79 297.18 L 307.46 298.62 C 307.97 298.56 308.99 298.46 309.50 298.41 C 309.48 298.94 309.44 300.00 309.42 300.54 C 309.97 300.54 311.06 300.55 311.61 300.56 C 311.51 301.08 311.32 302.12 311.23 302.64 L 312.45 302.29 C 312.53 305.13 312.51 307.98 312.45 310.82 L 311.61 310.16 C 311.59 312.73 311.47 315.29 311.42 317.87 L 310.49 317.16 C 310.50 318.73 310.51 320.30 310.52 321.88 L 309.55 321.11 C 309.50 323.37 309.42 325.63 309.39 327.90 L 308.56 327.10 C 308.56 329.05 308.52 331.01 308.52 332.97 L 307.54 332.17 C 307.57 333.13 307.65 335.05 307.68 336.01 L 306.67 335.22 C 306.61 337.49 306.53 339.75 306.49 342.03 L 305.73 341.31 C 305.76 343.93 305.21 346.62 305.96 349.20 L 304.59 347.69 C 304.45 349.55 304.58 351.40 304.99 353.22 L 303.71 351.64 C 303.58 354.41 303.47 357.18 303.43 359.96 L 302.54 359.21 C 302.62 361.22 302.39 363.29 303.06 365.24 L 301.69 363.63 C 301.60 365.41 301.54 367.20 301.49 368.99 L 300.64 368.18 C 300.60 371.10 300.46 374.02 300.43 376.95 L 299.51 376.17 C 299.55 377.12 299.63 379.04 299.67 379.99 L 298.65 379.19 C 298.59 381.42 298.49 383.64 298.44 385.88 L 297.60 385.19 C 297.60 387.14 297.58 389.10 297.58 391.06 L 296.68 390.28 C 296.66 391.85 296.65 393.43 296.64 395.01 L 295.70 394.28 C 295.64 396.84 295.49 399.39 295.45 401.95 L 294.63 401.17 C 294.62 403.75 294.52 406.33 294.48 408.92 L 293.51 408.22 C 293.51 409.11 293.52 410.88 293.53 411.77 L 292.43 411.17 C 292.43 411.98 292.44 413.60 292.44 414.41 C 291.66 414.56 290.10 414.87 289.32 415.02 C 290.26 415.26 292.14 415.74 293.07 415.98 L 289.61 416.66 C 289.59 417.45 289.55 419.03 289.53 419.82 L 288.39 419.28 C 288.42 419.86 288.49 421.01 288.53 421.59 C 287.95 421.50 286.81 421.32 286.24 421.23 L 286.81 422.02 C 286.37 422.44 285.48 423.28 285.04 423.70 L 284.20 423.11 L 284.55 424.70 C 284.02 424.59 282.98 424.38 282.45 424.28 L 282.71 425.95 L 281.85 425.12 L 281.32 426.31 L 280.04 426.70 L 280.75 427.43 C 278.88 427.46 277.00 427.50 275.13 427.54 L 275.84 428.65 L 271.75 428.03 L 275.55 429.51 C 271.43 429.65 267.31 429.70 263.21 429.34 C 263.40 428.90 263.80 428.04 264.00 427.61 C 262.41 427.54 260.82 427.49 259.23 427.44 L 259.63 426.21 C 259.09 426.35 258.02 426.63 257.49 426.77 L 257.63 425.13 L 256.19 425.71 L 256.56 424.08 C 256.04 424.28 255.00 424.69 254.48 424.90 L 254.80 423.25 L 253.92 423.81 C 253.50 423.37 252.67 422.49 252.25 422.05 L 252.85 421.15 L 251.21 421.70 L 251.76 420.19 L 250.35 420.66 C 250.40 420.09 250.50 418.94 250.55 418.36 C 250.08 418.40 249.14 418.46 248.67 418.50 C 248.60 417.72 248.46 416.16 248.39 415.38 L 247.02 415.57 C 247.25 415.03 247.71 413.95 247.94 413.41 L 246.50 413.69 C 246.55 413.07 246.65 411.82 246.70 411.20 C 246.06 411.24 244.77 411.31 244.13 411.35 C 244.52 411.24 245.28 411.00 245.67 410.89 C 245.20 406.28 245.55 401.66 245.53 397.04 L 246.42 397.93 C 246.66 393.59 246.59 389.26 246.32 384.93 C 246.69 387.54 246.80 390.17 247.19 392.80 C 247.57 389.25 247.53 385.68 247.60 382.13 L 248.53 382.89 C 248.50 381.28 248.48 379.67 248.46 378.07 L 249.43 378.91 C 249.47 376.64 249.56 374.39 249.58 372.13 L 250.36 372.84 C 250.38 368.98 250.64 365.12 250.68 361.26 L 251.26 362.26 C 251.59 360.53 252.11 358.87 252.56 357.18 C 252.63 354.07 252.43 350.96 252.35 347.86 C 252.68 350.23 252.97 352.61 253.24 355.00 C 253.39 351.67 253.51 348.36 253.55 345.04 L 254.41 345.91 C 254.48 343.04 254.65 340.18 254.71 337.32 L 255.54 338.03 C 255.55 333.16 256.03 328.29 255.53 323.44 C 255.00 323.46 253.96 323.50 253.43 323.52 C 253.48 322.99 253.58 321.94 253.63 321.41 L 252.25 321.84 L 252.58 320.38 C 252.06 320.41 251.00 320.48 250.48 320.51 C 250.52 319.97 250.61 318.88 250.66 318.34 L 249.91 318.78 C 249.48 318.38 248.63 317.56 248.21 317.16 L 248.76 316.25 L 247.85 316.73 C 247.44 316.32 246.62 315.50 246.20 315.09 L 246.78 314.19 L 245.20 314.77 L 245.73 313.21 L 244.89 313.75 C 244.46 313.31 243.62 312.43 243.20 311.99 L 243.83 311.94 C 243.39 311.50 242.49 310.62 242.05 310.18 L 242.01 310.72 C 241.55 310.29 240.65 309.44 240.19 309.01 L 240.85 308.96 C 240.41 308.52 239.54 307.65 239.10 307.21 L 238.19 307.82 L 238.85 306.20 L 237.33 306.72 L 237.77 305.25 L 236.24 305.55 C 236.35 305.07 236.57 304.11 236.68 303.64 C 235.95 303.54 234.49 303.34 233.76 303.24 C 233.68 302.53 233.50 301.10 233.41 300.39 C 232.92 300.44 231.93 300.54 231.43 300.58 C 231.48 300.03 231.56 298.92 231.61 298.36 L 230.18 298.82 L 230.70 297.28 L 229.17 297.82 L 229.81 296.18 L 228.89 296.80 C 228.46 296.37 227.62 295.52 227.20 295.09 L 227.80 294.18 L 226.15 294.77 L 226.79 293.20 L 225.89 293.75 C 225.48 293.33 224.66 292.51 224.24 292.09 L 224.87 291.09 L 223.89 291.69 C 223.47 291.26 222.63 290.41 222.21 289.99 L 222.84 289.16 C 220.67 289.24 218.50 289.36 216.34 289.55 C 216.46 290.06 216.70 291.06 216.81 291.56 L 215.23 291.19 L 215.76 292.05 C 215.33 292.46 214.47 293.28 214.04 293.69 L 213.15 293.20 L 213.77 294.74 L 212.16 294.15 L 212.77 295.06 C 212.35 295.48 211.51 296.32 211.08 296.74 L 210.29 296.34 C 210.35 296.88 210.46 297.96 210.52 298.50 C 210.03 298.46 209.06 298.39 208.57 298.35 C 208.48 299.06 208.28 300.47 208.18 301.18 C 207.49 301.27 206.10 301.46 205.40 301.56 C 205.43 302.06 205.49 303.06 205.52 303.56 C 205.03 303.52 204.07 303.45 203.59 303.41 C 203.50 304.13 203.33 305.56 203.25 306.27 C 202.53 306.37 201.11 306.57 200.40 306.68 C 200.49 307.16 200.68 308.14 200.77 308.63 L 199.91 308.21 C 199.48 308.63 198.62 309.47 198.19 309.89 L 198.71 310.76 L 197.18 310.35 C 197.26 310.88 197.43 311.94 197.52 312.47 C 197.02 312.43 196.02 312.34 195.51 312.30 C 195.43 313.03 195.27 314.48 195.19 315.21 C 194.46 315.29 193.01 315.45 192.28 315.53 L 192.88 316.85 L 191.56 316.29 C 191.47 317.09 191.29 318.69 191.21 319.50 C 190.74 319.37 189.82 319.12 189.36 319.00 L 189.78 320.72 L 188.91 320.12 C 188.48 320.56 187.64 321.45 187.21 321.90 L 187.76 322.78 L 186.13 322.24 L 186.69 323.74 L 185.11 323.23 L 185.80 324.72 L 184.08 324.09 L 184.80 325.04 C 184.37 325.47 183.52 326.33 183.09 326.76 L 182.39 326.22 C 182.40 326.83 182.42 328.03 182.43 328.64 L 179.82 328.11 C 180.34 328.49 181.39 329.23 181.91 329.61 C 181.31 329.54 180.12 329.40 179.52 329.33 C 179.50 329.90 179.45 331.03 179.42 331.60 C 178.92 331.52 177.90 331.36 177.40 331.29 L 177.88 332.70 L 176.36 332.48 C 176.44 332.96 176.60 333.92 176.68 334.40 C 175.23 334.52 173.79 334.64 172.34 334.75 C 172.46 335.17 172.71 336.01 172.83 336.43 C 144.56 336.71 116.28 336.45 88.01 336.56 C 85.71 336.50 83.23 336.86 81.18 335.55 C 79.85 335.48 78.52 335.42 77.19 335.38 L 77.90 334.54 C 76.39 334.50 74.89 334.46 73.39 334.43 C 73.43 333.93 73.51 332.94 73.55 332.44 C 73.01 332.50 71.93 332.62 71.40 332.68 L 71.59 331.28 C 71.05 331.38 69.98 331.58 69.44 331.68 L 69.65 330.14 L 68.14 330.58 C 68.26 330.11 68.50 329.19 68.62 328.73 C 67.88 328.65 66.39 328.49 65.65 328.41 C 65.53 327.17 65.41 325.94 65.30 324.70 L 61.56 323.96 C 62.52 323.73 64.43 323.27 65.38 323.03 C 64.58 322.88 62.97 322.57 62.16 322.42 C 62.32 321.90 62.63 320.87 62.78 320.35 L 61.26 320.94 L 61.85 319.14 L 60.47 319.96 C 60.28 314.96 59.92 309.95 60.43 304.95 L 61.51 305.91 C 61.51 304.98 61.51 303.14 61.51 302.22 L 62.99 302.61 C 62.76 302.07 62.29 300.98 62.06 300.44 L 63.71 300.78 L 63.11 299.30 L 64.64 299.52 L 63.99 296.26 L 65.28 298.91 C 65.38 298.02 65.58 296.23 65.68 295.33 C 66.15 295.44 67.08 295.65 67.55 295.75 L 67.06 294.28 L 68.51 294.62 C 68.51 294.08 68.51 293.00 68.51 292.45 C 69.04 292.53 70.12 292.68 70.65 292.75 L 70.45 291.38 C 70.99 291.47 72.07 291.63 72.60 291.72 L 72.26 290.11 L 73.79 290.97 L 73.21 289.59 C 75.04 289.48 76.87 289.37 78.69 289.28 L 77.93 288.34 C 78.94 288.34 80.96 288.33 81.96 288.33 L 80.81 286.29 C 81.55 286.81 83.02 287.84 83.76 288.36 C 83.61 287.93 83.30 287.07 83.15 286.64 C 103.65 286.54 124.15 286.76 144.65 286.53 C 144.62 286.02 144.57 285.00 144.55 284.49 C 145.02 284.54 145.98 284.64 146.46 284.69 C 146.53 283.96 146.68 282.50 146.76 281.77 C 147.49 281.66 148.94 281.44 149.67 281.33 C 149.55 280.87 149.33 279.93 149.21 279.46 L 150.72 279.76 L 150.28 278.28 L 151.75 278.83 L 151.24 277.24 L 152.08 277.82 C 152.47 277.37 153.26 276.47 153.65 276.02 L 153.15 275.26 L 154.68 275.57 C 154.63 275.05 154.53 274.03 154.48 273.51 C 154.99 273.52 156.01 273.55 156.52 273.56 C 156.52 273.03 156.52 271.98 156.52 271.45 C 156.98 271.49 157.89 271.56 158.35 271.59 C 158.46 270.82 158.68 269.27 158.79 268.50 C 159.25 268.61 160.16 268.83 160.62 268.94 L 160.18 267.37 L 161.83 267.89 L 161.20 266.96 C 161.62 266.53 162.48 265.67 162.91 265.25 L 163.71 265.69 C 163.65 265.13 163.52 264.00 163.45 263.43 C 163.94 263.48 164.93 263.59 165.42 263.64 C 165.51 262.87 165.67 261.33 165.76 260.57 C 166.22 260.61 167.14 260.70 167.60 260.74 C 167.61 260.16 167.64 259.01 167.66 258.43 C 168.14 258.54 169.12 258.75 169.61 258.86 L 169.19 257.35 L 170.66 257.58 C 170.61 257.07 170.50 256.04 170.44 255.53 C 170.96 255.53 172.00 255.55 172.52 255.56 C 172.51 255.03 172.48 253.96 172.47 253.43 C 172.95 253.47 173.90 253.55 174.38 253.59 C 174.48 252.80 174.67 251.23 174.77 250.44 C 175.24 250.58 176.18 250.85 176.65 250.99 L 176.27 250.01 C 176.67 249.57 177.47 248.69 177.86 248.24 L 178.69 248.70 L 178.28 247.18 L 179.67 247.62 C 179.63 247.10 179.55 246.06 179.51 245.54 C 180.02 245.54 181.04 245.54 181.55 245.55 C 181.55 245.02 181.54 243.98 181.54 243.45 C 182.00 243.49 182.92 243.58 183.37 243.62 C 183.47 242.82 183.66 241.23 183.76 240.43 C 184.22 240.56 185.15 240.82 185.61 240.95 L 185.15 239.37 L 186.76 239.83 L 186.20 238.92 C 186.62 238.51 187.47 237.68 187.90 237.27 L 188.79 237.73 L 188.19 236.03 L 189.44 236.75 C 189.52 235.93 189.68 234.29 189.76 233.46 C 190.23 233.59 191.16 233.85 191.62 233.98 L 191.20 232.30 L 192.06 232.76 C 192.50 232.34 193.40 231.49 193.85 231.07 L 193.15 230.99 C 193.59 230.56 194.45 229.71 194.88 229.28 L 195.72 229.74 L 195.22 228.06 L 196.44 228.73 C 196.52 227.99 196.68 226.51 196.76 225.77 C 197.48 225.66 198.91 225.43 199.63 225.32 C 199.54 224.86 199.36 223.94 199.27 223.48 L 200.77 223.73 L 200.26 222.29 L 201.86 222.89 L 201.34 222.00 C 201.73 221.56 202.51 220.66 202.90 220.22 L 203.74 220.78 L 203.25 219.15 L 204.48 219.72 C 204.56 218.98 204.72 217.52 204.80 216.78 C 205.46 216.69 206.79 216.52 207.46 216.43 C 207.54 215.69 207.70 214.21 207.79 213.48 C 208.24 213.59 209.16 213.83 209.62 213.95 L 209.25 212.29 L 210.09 212.78 C 210.50 212.35 211.32 211.49 211.73 211.06 L 211.10 210.08 L 212.50 210.70 C 212.57 209.97 212.71 208.52 212.77 207.79 C 213.50 207.68 214.95 207.47 215.68 207.36 C 215.56 206.88 215.33 205.92 215.22 205.44 L 216.13 205.76 C 216.56 205.34 217.40 204.49 217.83 204.07 L 217.07 203.18 L 218.76 203.74 L 218.21 202.27 L 219.67 202.65 C 219.63 202.10 219.56 201.00 219.52 200.45 C 220.03 200.50 221.06 200.59 221.57 200.64 L 221.24 199.19 L 222.59 199.59 C 222.55 199.05 222.46 197.98 222.42 197.44 C 222.91 197.47 223.88 197.52 224.37 197.55 C 224.48 196.78 224.68 195.25 224.78 194.49 C 225.25 194.60 226.20 194.82 226.67 194.93 L 226.25 193.99 C 226.65 193.57 227.44 192.73 227.84 192.31 L 228.73 192.74 L 228.22 191.85 C 228.64 191.45 229.48 190.64 229.90 190.23 L 230.71 190.62 C 230.64 190.09 230.49 189.02 230.42 188.49 C 230.97 188.51 232.05 188.54 232.60 188.56 L 232.24 187.08 L 233.58 187.60 C 233.54 187.05 233.45 185.95 233.41 185.40 C 233.90 185.44 234.89 185.52 235.39 185.56 C 235.43 184.54 235.53 182.50 235.57 181.47 C 231.45 181.60 227.32 181.57 223.20 181.54 L 223.71 182.84 C 223.17 182.71 222.08 182.45 221.54 182.32 C 221.52 182.88 221.48 183.99 221.46 184.54 C 220.96 184.50 219.95 184.42 219.45 184.39 C 219.47 184.93 219.51 186.01 219.54 186.55 C 219.01 186.53 217.95 186.48 217.42 186.46 C 217.50 187.02 217.64 188.13 217.72 188.69 L 216.89 188.18 C 216.46 188.61 215.60 189.49 215.17 189.93 L 215.79 190.80 L 214.06 190.31 L 214.68 191.69 C 214.13 191.64 213.03 191.54 212.49 191.50 C 212.55 192.05 212.67 193.15 212.74 193.70 L 211.24 193.19 L 211.87 194.68 L 210.36 194.35 C 210.39 194.90 210.46 196.01 210.49 196.57 C 209.96 196.50 208.91 196.38 208.38 196.32 L 208.81 197.73 L 207.34 197.42 C 207.40 197.93 207.52 198.95 207.58 199.47 C 207.02 199.47 205.92 199.48 205.37 199.48 C 205.43 200.00 205.56 201.05 205.63 201.58 L 204.19 201.22 L 204.60 202.64 C 204.07 202.60 203.01 202.50 202.48 202.45 C 202.52 202.99 202.59 204.07 202.62 204.61 L 201.21 204.27 L 201.62 205.68 C 201.09 205.62 200.04 205.51 199.51 205.45 C 199.55 206.00 199.62 207.09 199.66 207.64 L 198.26 207.26 L 198.76 208.83 L 197.91 208.21 C 197.50 208.64 196.68 209.51 196.28 209.95 L 196.93 210.79 L 195.21 210.22 L 195.78 211.07 C 195.35 211.51 194.49 212.38 194.06 212.82 L 194.01 212.23 C 193.58 212.67 192.74 213.54 192.32 213.98 L 192.85 214.78 L 191.34 214.43 C 191.39 214.94 191.50 215.96 191.55 216.47 C 191.02 216.47 189.97 216.46 189.44 216.45 C 189.45 216.97 189.48 218.00 189.50 218.52 C 188.98 218.51 187.95 218.49 187.44 218.48 C 187.48 218.98 187.55 219.98 187.59 220.47 C 187.07 220.48 186.04 220.48 185.52 220.49 C 185.53 221.01 185.54 222.06 185.54 222.59 C 185.04 222.56 184.03 222.50 183.52 222.47 C 183.53 222.99 183.54 224.04 183.55 224.57 C 183.02 224.54 181.97 224.49 181.44 224.46 C 181.45 224.95 181.47 225.93 181.48 226.41 C 180.94 226.41 179.86 226.40 179.32 226.39 C 179.35 226.85 179.40 227.77 179.42 228.23 C 178.61 228.29 176.98 228.41 176.16 228.47 L 176.60 229.83 C 176.02 229.65 174.88 229.28 174.30 229.09 L 174.82 230.40 C 169.62 230.69 164.42 230.63 159.22 230.39 L 159.92 229.87 C 158.46 229.32 157.19 228.43 156.00 227.44 C 155.62 227.44 154.84 227.45 154.45 227.45 C 154.51 226.98 154.62 226.04 154.68 225.57 C 153.92 225.49 152.39 225.33 151.63 225.25 C 151.64 224.76 151.68 223.78 151.69 223.28 C 151.22 223.31 150.26 223.36 149.78 223.38 C 149.67 221.99 149.53 220.60 149.42 219.21 L 148.18 219.77 L 148.80 217.98 L 147.49 218.78 C 147.50 217.85 147.53 216.01 147.54 215.08 L 146.61 215.92 C 146.57 212.28 146.53 208.65 146.60 205.02 C 146.84 205.27 147.33 205.76 147.57 206.00 C 147.53 204.74 147.48 203.47 147.44 202.21 C 147.72 202.37 148.27 202.68 148.55 202.84 C 148.56 201.96 148.59 200.22 148.60 199.35 L 149.93 199.92 L 149.29 198.33 L 150.84 198.59 L 150.26 197.02 L 151.68 197.72 C 151.63 197.17 151.52 196.08 151.46 195.54 C 151.98 195.51 153.03 195.44 153.55 195.41 C 153.48 194.92 153.35 193.94 153.28 193.45 L 154.80 193.70 L 154.13 192.14 L 155.05 192.76 C 155.48 192.35 156.34 191.52 156.77 191.11 L 156.18 190.23 L 157.77 190.84 L 157.26 189.33 L 158.71 189.81 L 158.39 188.39 C 158.93 188.42 160.01 188.48 160.55 188.51 C 160.50 187.99 160.41 186.93 160.37 186.40 L 161.74 186.80 L 161.45 185.36 C 161.95 185.41 162.95 185.51 163.45 185.57 C 163.46 185.03 163.47 183.95 163.48 183.42 C 163.99 183.44 165.02 183.49 165.53 183.51 C 165.53 183.01 165.52 182.02 165.51 181.52 C 166.02 181.52 167.04 181.51 167.55 181.51 C 167.54 181.02 167.51 180.03 167.50 179.54 C 168.01 179.54 169.04 179.54 169.55 179.55 C 169.53 179.03 169.49 177.99 169.47 177.47 C 169.99 177.50 171.02 177.55 171.54 177.58 C 171.55 177.05 171.58 175.98 171.59 175.45 C 172.12 175.53 173.18 175.67 173.71 175.75 L 173.16 174.95 C 173.60 174.52 174.48 173.68 174.92 173.26 L 175.80 173.83 L 175.17 172.25 L 176.74 172.75 L 176.26 171.90 C 176.69 171.46 177.53 170.58 177.95 170.15 L 178.02 170.81 C 178.47 170.39 179.37 169.55 179.82 169.13 L 179.14 168.21 L 180.72 168.88 L 180.21 167.26 L 181.09 167.81 C 181.50 167.39 182.33 166.56 182.74 166.15 L 182.23 165.21 L 183.17 165.78 C 183.58 165.35 184.40 164.50 184.81 164.08 L 184.30 163.28 C 184.86 163.35 185.98 163.50 186.54 163.57 C 186.51 163.03 186.44 161.95 186.41 161.41 L 187.82 161.79 L 187.50 160.25 C 188.02 160.38 189.05 160.65 189.57 160.79 L 189.14 159.28 L 190.61 159.60 C 190.57 159.08 190.47 158.02 190.42 157.50 C 190.97 157.51 192.07 157.55 192.62 157.56 C 192.58 157.08 192.49 156.11 192.45 155.63 C 193.23 155.54 194.81 155.36 195.60 155.28 C 195.47 154.79 195.20 153.81 195.07 153.32 L 196.03 153.80 C 196.46 153.37 197.31 152.52 197.73 152.09 L 197.19 151.19 L 198.80 151.81 L 198.10 150.16 L 199.06 150.79 C 199.48 150.37 200.32 149.54 200.74 149.12 L 200.25 148.28 L 201.98 148.81 L 201.28 147.83 C 203.63 147.66 204.90 146.25 204.93 143.84 L 205.52 146.32 C 205.52 145.59 205.53 144.14 205.53 143.41 C 206.05 143.43 207.09 143.47 207.61 143.49 C 207.55 143.01 207.44 142.05 207.38 141.57 C 208.18 141.50 209.79 141.34 210.59 141.26 L 210.23 139.99 C 210.78 140.11 211.88 140.35 212.44 140.47 C 212.39 139.98 212.29 138.99 212.25 138.50 Z" />
<path fill="#ffffff" opacity="1.00" d=" M 354.25 334.58 C 358.05 334.25 361.95 334.71 365.63 333.49 L 365.25 334.31 C 370.18 334.13 375.12 334.45 380.06 334.24 C 378.36 335.48 377.40 336.54 380.74 334.53 C 382.49 335.87 384.64 336.42 386.81 336.62 L 386.58 337.69 C 387.06 337.54 388.00 337.25 388.48 337.10 L 388.56 338.56 C 389.07 338.47 390.08 338.27 390.59 338.18 L 390.41 339.38 C 391.19 339.45 392.77 339.60 393.55 339.67 L 393.37 340.91 L 394.71 340.28 L 394.43 341.67 C 394.92 341.63 395.89 341.53 396.37 341.49 C 396.43 341.99 396.56 342.99 396.62 343.49 C 397.09 343.47 398.03 343.42 398.51 343.40 L 398.40 344.78 L 399.69 344.30 L 399.43 345.58 C 399.74 345.59 400.36 345.62 400.68 345.63 C 401.54 346.56 402.44 347.47 403.36 348.36 C 403.38 348.66 403.41 349.26 403.43 349.56 L 404.66 349.34 L 404.23 350.61 L 405.60 350.48 C 405.58 350.96 405.56 351.93 405.54 352.41 C 406.03 352.46 407.00 352.56 407.48 352.61 C 407.46 353.07 407.40 354.00 407.37 354.47 L 408.83 354.64 L 408.21 356.40 C 408.48 356.36 409.01 356.28 409.27 356.24 C 409.77 357.44 410.26 358.65 410.76 359.86 L 411.72 359.53 C 411.58 360.04 411.30 361.04 411.16 361.55 L 412.37 361.38 C 412.47 362.84 412.57 364.31 412.67 365.78 L 413.27 365.01 C 413.77 367.32 414.53 369.58 414.73 371.95 L 415.41 371.16 C 415.59 376.87 415.74 382.57 415.59 388.28 L 414.80 387.35 C 414.74 389.80 414.53 392.25 414.36 394.70 L 413.15 394.48 C 413.36 395.01 413.79 396.06 414.00 396.59 L 412.75 396.36 C 412.62 397.79 412.49 399.22 412.37 400.66 L 411.22 400.43 C 411.32 400.92 411.53 401.90 411.64 402.39 L 410.23 402.45 C 410.31 402.94 410.47 403.92 410.55 404.41 L 409.36 404.40 C 409.36 404.72 409.37 405.38 409.37 405.70 C 408.16 407.27 407.01 408.89 405.64 410.33 C 405.61 410.63 405.53 411.23 405.50 411.53 L 404.22 411.39 L 404.66 412.66 L 403.43 412.44 C 403.41 412.74 403.38 413.34 403.36 413.64 C 402.43 414.52 401.54 415.43 400.67 416.37 C 400.36 416.39 399.74 416.42 399.43 416.44 L 399.67 417.72 L 398.39 417.21 L 398.51 418.59 C 398.03 418.57 397.06 418.54 396.57 418.52 C 396.53 419.02 396.44 420.01 396.39 420.51 C 395.91 420.46 394.93 420.38 394.45 420.33 L 394.51 421.71 C 394.00 421.63 392.98 421.48 392.47 421.40 L 392.51 422.76 C 391.99 422.64 390.96 422.40 390.44 422.28 L 390.79 423.51 C 389.99 423.57 388.38 423.70 387.58 423.76 L 387.62 424.95 C 387.13 424.85 386.15 424.65 385.66 424.55 C 385.63 424.98 385.57 425.84 385.54 426.26 C 384.06 426.34 382.60 426.42 381.13 426.51 L 381.77 427.46 C 380.86 427.49 379.05 427.56 378.14 427.60 C 378.31 428.18 378.49 428.76 378.67 429.36 C 372.08 429.72 365.49 430.05 358.90 429.47 C 358.47 429.13 357.59 428.44 357.16 428.10 L 357.57 427.22 C 357.01 427.43 355.89 427.84 355.33 428.05 L 355.68 426.69 C 354.21 426.59 352.75 426.48 351.30 426.39 L 351.40 425.29 C 350.91 425.47 349.93 425.82 349.45 425.99 L 349.63 424.63 C 348.82 424.56 347.20 424.42 346.39 424.35 L 346.61 423.10 L 345.15 423.75 L 345.55 422.22 C 345.06 422.37 344.07 422.65 343.58 422.80 L 343.44 421.36 C 342.95 421.46 341.99 421.66 341.51 421.75 L 341.57 420.34 C 341.06 420.37 340.04 420.42 339.53 420.45 C 339.53 420.08 339.54 419.34 339.54 418.97 C 338.64 418.45 337.76 417.92 336.88 417.37 C 336.47 417.06 335.63 416.43 335.22 416.12 L 335.61 415.38 C 335.10 415.40 334.09 415.44 333.58 415.46 C 333.59 414.95 333.61 413.94 333.62 413.43 L 332.22 413.71 L 332.76 412.39 L 331.38 412.53 C 331.40 412.04 331.45 411.06 331.47 410.57 C 330.99 410.55 330.02 410.51 329.53 410.49 C 329.54 409.99 329.56 408.99 329.57 408.49 L 328.30 408.57 C 328.28 408.25 328.26 407.61 328.25 407.29 C 326.77 406.07 326.27 404.30 325.98 402.50 C 325.65 402.53 324.99 402.58 324.66 402.60 C 324.57 401.79 324.39 400.15 324.30 399.33 L 323.05 399.55 C 323.25 399.03 323.66 398.00 323.86 397.48 L 322.54 397.73 C 322.52 396.86 322.49 395.12 322.47 394.25 L 321.61 394.73 C 321.53 393.21 321.46 391.69 321.39 390.17 L 320.57 390.84 C 320.50 388.30 320.39 385.77 320.36 383.24 L 319.69 383.74 C 319.68 382.62 319.68 380.37 319.67 379.25 L 320.32 379.70 C 320.35 376.84 320.50 373.98 320.57 371.12 L 321.18 371.85 C 321.54 369.29 322.41 366.84 322.77 364.28 L 323.19 364.73 C 323.66 362.93 324.33 361.19 324.87 359.41 L 325.93 359.77 L 325.31 358.31 L 326.66 358.46 C 326.54 357.97 326.32 356.98 326.20 356.49 L 327.66 356.50 C 327.58 356.00 327.43 355.01 327.35 354.51 L 328.67 354.54 C 328.63 354.05 328.55 353.09 328.51 352.61 C 329.00 352.57 329.98 352.48 330.47 352.44 C 330.46 351.95 330.43 350.97 330.41 350.48 L 331.78 350.61 L 331.35 349.31 L 332.61 349.57 C 332.61 349.27 332.62 348.67 332.63 348.36 C 333.55 347.47 334.45 346.56 335.33 345.63 C 335.64 345.62 336.26 345.59 336.57 345.58 L 336.31 344.30 L 337.60 344.80 L 337.50 343.42 C 337.97 343.43 338.91 343.47 339.39 343.49 C 339.45 342.99 339.57 341.99 339.63 341.50 C 340.10 341.54 341.05 341.62 341.52 341.66 L 341.48 340.30 C 341.97 340.36 342.96 340.48 343.46 340.54 L 343.53 339.18 C 343.99 339.30 344.92 339.54 345.39 339.66 L 345.47 338.22 C 345.97 338.30 346.97 338.46 347.48 338.54 L 347.45 337.22 C 347.94 337.31 348.93 337.48 349.42 337.57 L 349.60 335.98 C 350.05 336.19 350.96 336.60 351.42 336.80 C 351.40 336.48 351.36 335.85 351.35 335.53 C 352.20 335.53 353.90 335.54 354.76 335.54 L 354.25 334.58 M 352.20 338.63 L 352.59 339.89 C 352.08 339.71 351.08 339.33 350.57 339.15 L 350.49 340.58 C 349.97 340.51 348.91 340.37 348.38 340.29 L 348.51 341.65 C 348.01 341.56 347.02 341.38 346.52 341.29 L 346.39 342.65 C 345.90 342.52 344.92 342.27 344.43 342.15 L 344.67 343.06 C 343.73 343.60 342.80 344.17 341.89 344.76 C 341.46 345.05 340.60 345.63 340.17 345.92 L 340.61 346.67 C 340.11 346.63 339.12 346.55 338.63 346.51 C 338.57 347.01 338.44 348.00 338.38 348.49 C 337.89 348.45 336.91 348.37 336.42 348.33 L 336.78 349.08 C 336.35 349.51 335.51 350.37 335.08 350.81 L 334.28 350.45 C 334.37 350.95 334.55 351.93 334.64 352.43 L 333.29 352.52 C 333.38 353.00 333.57 353.97 333.66 354.45 L 332.19 354.50 C 332.31 354.99 332.54 355.97 332.66 356.46 L 331.34 356.47 C 331.44 356.99 331.65 358.01 331.75 358.53 L 330.34 358.52 C 330.42 359.06 330.60 360.13 330.69 360.67 L 328.70 360.89 C 329.44 361.11 330.91 361.55 331.64 361.77 C 331.58 362.15 331.45 362.89 331.38 363.27 C 332.18 363.37 333.78 363.56 334.58 363.66 L 334.35 364.87 L 335.69 364.26 L 335.55 365.73 C 336.04 365.61 337.02 365.37 337.52 365.26 L 337.29 366.25 C 339.19 367.47 341.37 367.73 343.58 367.54 L 343.14 366.12 L 344.59 366.82 L 344.36 365.63 C 345.15 365.54 346.75 365.38 347.55 365.29 L 347.15 364.01 L 348.58 364.67 L 348.47 363.26 C 348.98 363.38 349.99 363.60 350.50 363.71 L 350.44 362.24 C 350.94 362.33 351.93 362.51 352.43 362.60 L 352.52 361.19 C 353.00 361.32 353.97 361.59 354.45 361.72 L 354.47 360.19 C 354.96 360.30 355.94 360.52 356.42 360.63 L 356.39 359.28 L 357.86 359.48 C 357.68 358.98 357.32 357.99 357.15 357.49 L 358.38 357.63 C 358.41 356.76 358.47 355.04 358.50 354.17 L 359.39 354.72 C 359.42 353.85 359.47 352.11 359.49 351.24 L 360.38 351.67 C 360.40 350.81 360.42 349.10 360.44 348.24 L 361.73 348.43 C 361.55 347.94 361.19 346.96 361.01 346.47 L 362.29 346.54 C 362.30 345.15 362.31 343.77 362.34 342.39 C 361.88 342.48 360.96 342.66 360.50 342.75 L 360.61 341.36 L 359.21 341.91 L 359.59 340.64 C 358.78 340.57 357.17 340.44 356.36 340.38 L 356.54 339.16 C 355.99 339.32 354.90 339.64 354.35 339.80 L 354.84 338.58 C 354.18 338.60 352.86 338.62 352.20 338.63 M 386.22 339.60 C 385.76 341.76 386.31 343.55 387.87 344.95 C 389.06 345.99 390.10 347.19 391.03 348.48 L 391.78 348.36 L 391.34 349.77 L 392.10 349.32 C 392.49 349.72 393.27 350.53 393.66 350.93 L 393.18 351.67 L 394.52 351.50 C 394.55 351.79 394.61 352.37 394.65 352.66 C 395.52 353.56 396.38 354.48 397.21 355.43 C 397.51 355.48 398.12 355.58 398.42 355.62 C 398.45 356.11 398.52 357.09 398.56 357.58 C 399.05 357.53 400.02 357.44 400.51 357.39 L 400.55 358.73 C 401.04 358.61 402.01 358.35 402.49 358.23 L 402.45 359.71 C 402.95 359.65 403.94 359.51 404.44 359.44 L 404.38 360.77 L 405.86 360.09 L 405.27 361.34 C 405.86 361.41 407.05 361.55 407.64 361.62 C 407.52 360.53 407.42 359.45 407.33 358.37 L 406.12 358.64 L 406.75 357.28 L 405.38 357.42 C 405.45 356.95 405.59 355.99 405.66 355.52 L 404.71 355.79 C 404.56 355.38 404.28 354.55 404.13 354.14 C 402.73 352.82 401.43 351.40 400.15 349.98 C 399.88 349.69 399.33 349.11 399.06 348.82 C 397.63 347.59 396.23 346.33 394.84 345.05 C 394.44 344.86 393.64 344.46 393.24 344.26 L 393.44 343.38 C 392.96 343.45 392.00 343.59 391.52 343.66 L 391.45 342.21 C 390.99 342.32 390.07 342.53 389.61 342.64 L 389.62 341.90 C 388.77 341.33 387.07 340.18 386.22 339.60 M 365.36 344.39 C 365.41 344.93 365.53 346.00 365.58 346.54 L 364.18 346.53 C 364.36 347.04 364.74 348.07 364.92 348.58 L 363.72 348.34 C 363.62 349.80 363.52 351.27 363.43 352.74 L 362.62 352.20 C 362.49 353.37 362.25 355.72 362.12 356.90 C 361.96 355.77 361.80 354.65 361.66 353.54 C 361.60 355.23 361.51 356.93 361.42 358.64 L 360.10 358.45 C 360.28 358.97 360.64 360.03 360.82 360.55 C 360.51 360.50 359.91 360.39 359.61 360.33 C 359.66 360.88 359.77 361.97 359.82 362.51 C 360.23 362.48 361.05 362.41 361.46 362.37 C 361.49 362.89 361.55 363.93 361.58 364.45 C 362.07 364.47 363.06 364.53 363.55 364.55 C 363.52 365.04 363.45 366.00 363.42 366.49 L 364.72 366.23 L 364.34 367.68 L 365.18 367.27 C 365.56 367.69 366.34 368.51 366.72 368.93 L 366.12 369.80 L 367.71 369.29 L 367.21 370.62 L 368.60 370.40 L 368.32 371.82 L 369.68 371.49 C 369.63 371.98 369.53 372.95 369.48 373.44 C 373.25 373.70 377.03 373.42 380.81 373.38 L 380.15 372.60 C 383.00 372.56 385.86 372.40 388.72 372.34 L 388.25 371.72 C 389.62 371.65 390.98 371.57 392.35 371.48 C 392.42 370.68 392.54 369.08 392.60 368.27 L 393.54 368.84 C 393.57 367.95 393.64 366.17 393.67 365.28 L 394.55 365.92 C 394.58 365.03 394.63 363.25 394.66 362.36 L 395.74 362.84 C 395.66 360.58 396.33 357.67 393.70 356.60 C 393.69 356.31 393.67 355.73 393.66 355.44 L 392.46 355.52 C 392.44 355.20 392.39 354.55 392.37 354.23 C 391.08 353.10 389.87 351.89 388.60 350.75 C 388.59 350.44 388.56 349.81 388.55 349.49 L 387.23 349.61 L 387.68 348.31 L 386.21 348.78 L 386.68 347.94 C 386.30 347.53 385.53 346.70 385.15 346.29 L 384.37 346.67 L 384.73 345.29 L 383.42 345.47 C 383.44 345.00 383.48 344.06 383.50 343.59 C 378.06 343.11 372.62 343.66 367.18 343.58 L 367.58 344.49 C 367.02 344.47 365.91 344.41 365.36 344.39 M 327.37 364.60 C 327.46 365.08 327.64 366.03 327.73 366.50 L 326.22 366.24 L 326.64 366.95 C 326.28 367.63 325.55 368.98 325.19 369.66 L 324.52 369.41 C 324.50 370.26 324.46 371.96 324.44 372.81 L 323.66 372.24 C 323.33 378.08 323.35 383.93 323.64 389.78 L 324.42 389.20 C 324.46 390.75 324.49 392.31 324.53 393.87 L 325.11 393.23 C 325.33 394.85 326.07 396.26 327.32 397.32 C 327.40 397.60 327.54 398.14 327.62 398.42 C 328.11 398.43 329.10 398.47 329.59 398.49 C 329.58 398.95 329.55 399.86 329.54 400.32 C 330.91 400.43 332.29 400.54 333.67 400.66 L 333.22 399.38 L 334.58 399.46 C 334.52 398.98 334.39 398.01 334.33 397.52 L 335.71 397.47 C 335.64 397.00 335.48 396.05 335.40 395.57 L 336.77 395.65 L 336.27 394.37 L 337.66 394.47 C 337.60 393.99 337.46 393.03 337.40 392.55 L 338.77 392.61 L 338.26 391.33 L 339.67 391.52 C 339.61 391.03 339.48 390.05 339.42 389.56 L 340.89 389.44 C 340.68 388.90 340.26 387.80 340.05 387.25 L 341.34 387.84 C 341.33 387.19 341.30 385.90 341.29 385.25 L 340.45 386.06 C 340.26 381.56 340.08 377.06 340.19 372.56 C 339.92 372.60 339.39 372.68 339.12 372.71 C 339.23 372.18 339.46 371.12 339.57 370.58 C 339.04 370.57 337.99 370.55 337.46 370.53 L 337.65 369.19 L 336.32 369.78 L 336.49 368.37 C 336.00 368.45 335.02 368.62 334.53 368.70 L 334.45 367.32 C 333.97 367.40 333.02 367.57 332.54 367.66 L 332.61 366.33 C 332.09 366.35 331.06 366.41 330.55 366.43 C 330.52 365.98 330.46 365.08 330.43 364.63 C 329.41 364.62 328.39 364.61 327.37 364.60 M 381.23 375.72 L 381.89 376.42 C 378.08 376.40 374.28 376.55 370.48 376.78 C 370.55 377.20 370.70 378.03 370.77 378.44 L 369.35 378.50 C 369.42 379.00 369.56 380.02 369.63 380.53 L 368.23 380.41 C 368.32 380.92 368.51 381.93 368.60 382.44 L 367.30 382.44 C 367.37 382.94 367.51 383.93 367.58 384.43 C 367.09 384.49 366.10 384.61 365.61 384.67 C 365.69 385.16 365.86 386.15 365.94 386.64 L 364.55 386.68 C 364.64 387.16 364.82 388.11 364.91 388.59 L 363.47 388.69 C 363.62 389.19 363.91 390.18 364.05 390.68 L 362.76 390.42 C 362.72 391.02 362.63 392.24 362.58 392.84 L 363.84 392.29 C 363.69 392.82 363.39 393.89 363.24 394.42 L 364.68 394.52 C 364.61 395.01 364.47 395.99 364.41 396.48 L 365.78 396.34 L 365.23 397.65 L 366.61 397.56 C 366.52 398.04 366.34 399.01 366.25 399.49 L 367.66 399.54 C 367.60 400.02 367.47 401.00 367.41 401.49 L 368.15 401.38 C 368.53 402.03 369.28 403.34 369.66 404.00 L 369.32 404.71 L 370.69 404.54 C 370.58 405.02 370.37 405.98 370.26 406.46 L 371.64 406.48 C 371.60 406.97 371.50 407.96 371.46 408.45 L 372.83 408.50 L 372.47 410.31 C 372.98 409.97 373.99 409.29 374.49 408.95 L 374.14 410.34 L 376.83 410.41 L 376.16 409.61 C 381.01 409.73 385.92 409.72 390.57 408.13 C 390.50 407.74 390.35 406.97 390.28 406.58 L 391.76 406.45 C 391.66 405.97 391.45 405.02 391.34 404.54 L 392.69 404.68 L 392.16 403.36 L 393.64 403.44 C 393.55 403.09 393.37 402.39 393.28 402.04 C 394.62 399.92 396.25 397.80 396.71 395.28 L 397.73 395.50 C 397.63 395.02 397.43 394.05 397.33 393.56 L 398.70 393.45 C 398.61 392.98 398.42 392.03 398.32 391.56 L 399.76 391.68 L 399.13 390.33 L 400.34 390.62 C 400.34 389.54 400.36 388.46 400.38 387.39 L 399.28 387.59 C 399.29 387.30 399.31 386.71 399.31 386.41 C 398.31 385.24 397.51 383.92 397.00 382.47 L 396.18 382.66 C 396.20 382.35 396.25 381.72 396.27 381.41 C 395.28 380.24 394.46 378.95 393.94 377.51 L 393.31 377.83 C 393.32 376.98 393.32 375.29 393.32 374.44 C 389.11 373.69 385.43 376.20 381.23 375.72 M 409.37 385.71 C 409.41 386.04 409.48 386.72 409.51 387.06 C 407.73 387.43 405.99 388.07 404.75 389.47 C 404.54 389.47 404.13 389.47 403.92 389.47 C 403.32 390.57 402.73 391.68 402.14 392.79 L 401.31 392.52 C 401.44 393.01 401.71 393.98 401.84 394.47 L 400.39 394.52 C 400.46 395.01 400.61 396.01 400.68 396.51 L 399.36 396.57 C 399.46 397.04 399.64 398.00 399.74 398.48 L 398.30 398.53 C 398.38 399.00 398.56 399.95 398.65 400.43 L 397.28 400.55 C 397.38 401.04 397.60 402.03 397.71 402.53 L 396.80 402.15 C 396.31 403.33 395.82 404.52 395.33 405.71 C 395.06 405.69 394.53 405.66 394.27 405.64 L 394.91 407.47 L 393.52 407.45 C 393.34 410.23 393.45 413.02 393.58 415.81 L 394.67 415.26 L 394.43 417.39 C 395.16 416.77 396.61 415.52 397.33 414.89 L 397.26 414.27 L 398.63 414.63 L 398.28 413.83 C 398.68 413.44 399.47 412.66 399.86 412.27 L 400.67 412.68 L 400.25 411.30 L 401.59 411.49 C 401.57 411.01 401.53 410.06 401.51 409.58 C 401.99 409.53 402.96 409.42 403.45 409.37 C 403.43 408.89 403.40 407.92 403.39 407.44 L 404.69 407.72 L 404.19 406.40 L 405.56 406.53 C 405.53 406.02 405.46 405.01 405.43 404.51 L 406.74 404.50 C 406.65 404.01 406.46 403.03 406.36 402.54 L 407.78 402.64 L 407.23 401.35 L 408.64 401.40 C 408.50 400.90 408.23 399.91 408.09 399.41 L 409.37 399.62 C 409.42 398.78 409.51 397.11 409.56 396.27 L 410.10 396.62 C 410.79 394.15 411.76 391.73 411.74 389.12 L 412.37 389.72 C 412.39 388.32 412.43 386.92 412.48 385.52 C 411.44 385.58 410.40 385.64 409.37 385.71 M 341.79 391.56 C 341.67 392.31 341.44 393.82 341.32 394.57 L 340.10 394.33 L 340.71 395.65 L 339.34 395.53 C 339.41 396.00 339.57 396.95 339.64 397.43 L 338.41 397.40 C 338.37 397.70 338.29 398.28 338.25 398.58 C 337.27 399.78 336.48 401.12 335.80 402.52 C 335.52 402.50 334.95 402.45 334.67 402.43 C 334.65 403.49 334.62 404.56 334.59 405.63 L 335.77 405.32 C 335.74 405.64 335.69 406.29 335.67 406.62 C 336.99 408.10 338.15 409.73 339.43 411.26 C 339.44 411.58 339.45 412.22 339.46 412.54 L 340.61 412.45 C 340.61 412.76 340.60 413.38 340.59 413.69 C 341.46 414.63 342.29 415.60 343.11 416.59 C 343.50 416.46 344.28 416.19 344.67 416.05 L 344.27 417.32 C 346.77 417.38 349.26 417.50 351.77 417.56 L 351.32 418.34 C 353.51 418.36 355.69 418.45 357.89 418.52 L 357.26 419.35 C 360.01 419.49 362.77 419.68 365.53 419.53 C 365.51 419.03 365.47 418.03 365.45 417.53 C 365.95 417.46 366.95 417.33 367.45 417.26 C 367.37 416.82 367.22 415.92 367.14 415.47 L 368.43 415.49 C 368.45 414.96 368.47 413.90 368.49 413.38 C 368.92 413.40 369.78 413.44 370.21 413.47 C 370.26 412.73 370.35 411.26 370.39 410.52 C 370.08 410.54 369.46 410.58 369.15 410.59 L 369.72 409.28 L 368.28 409.50 C 368.37 409.01 368.57 408.05 368.67 407.56 L 367.30 407.61 L 367.81 406.33 L 366.45 406.42 C 366.51 405.93 366.63 404.96 366.69 404.47 L 365.36 404.46 C 365.44 403.97 365.62 403.01 365.70 402.53 L 364.26 402.45 C 364.37 401.98 364.59 401.03 364.70 400.55 L 363.79 400.69 C 363.24 399.53 362.69 398.37 362.15 397.22 L 361.30 397.53 C 361.40 397.03 361.60 396.04 361.69 395.55 L 360.25 395.58 L 360.52 394.16 C 360.04 394.30 359.07 394.59 358.59 394.73 L 358.36 393.16 C 357.85 393.45 356.84 394.03 356.34 394.33 C 356.39 393.94 356.49 393.17 356.54 392.79 C 353.76 392.67 350.99 392.49 348.22 392.38 L 348.76 391.58 C 346.44 391.53 344.11 391.47 341.79 391.56 M 352.62 423.87 C 353.12 423.66 354.11 423.25 354.60 423.04 L 354.25 424.37 C 355.80 424.40 357.35 424.44 358.90 424.48 C 358.74 424.70 358.42 425.14 358.26 425.36 C 362.19 425.63 366.13 425.78 370.03 425.02 L 364.93 424.30 L 365.90 423.43 C 364.97 423.45 363.10 423.49 362.17 423.51 L 362.81 422.62 C 360.94 422.55 359.08 422.47 357.22 422.41 L 357.82 421.65 C 355.93 421.61 354.04 421.54 352.16 421.44 C 352.28 422.05 352.51 423.26 352.62 423.87 Z" />
</g>
</svg>
