<?xml version="1.0" encoding="UTF-8" ?>
<!DOCTYPE svg PUBLIC "-//W3C//DTD SVG 1.1//EN" "http://www.w3.org/Graphics/SVG/1.1/DTD/svg11.dtd">
<svg width="128pt" height="128pt" viewBox="0 0 128 128" version="1.1" xmlns="http://www.w3.org/2000/svg">
<g id="#000000ff">
<path fill="#000000" opacity="1.00" d=" M 71.01 34.12 C 77.90 28.25 89.01 29.19 95.12 35.77 C 99.08 34.89 102.82 33.31 106.39 31.43 C 104.82 35.48 101.90 38.71 98.62 41.47 C 102.08 40.68 105.46 39.60 108.79 38.39 C 106.19 41.89 103.10 44.96 99.76 47.74 C 100.40 64.36 92.43 81.17 78.88 90.89 C 62.73 102.63 39.57 102.79 22.77 92.25 C 31.90 92.92 41.33 90.61 48.58 84.88 C 41.16 84.54 34.78 79.49 32.09 72.68 C 34.53 72.75 36.97 72.82 39.41 72.68 C 36.96 70.67 33.63 70.00 31.48 67.58 C 27.90 64.31 26.28 59.52 25.97 54.78 C 28.49 55.85 31.11 56.68 33.82 57.10 C 31.36 54.54 28.60 52.06 27.43 48.60 C 25.46 43.66 26.19 38.07 28.41 33.34 C 37.43 44.06 50.67 51.08 64.72 51.87 C 63.77 45.38 65.64 38.24 71.01 34.12 Z" />
</g>
</svg>
