<?xml version="1.0" encoding="UTF-8" ?>
<!DOCTYPE svg PUBLIC "-//W3C//DTD SVG 1.1//EN" "http://www.w3.org/Graphics/SVG/1.1/DTD/svg11.dtd">
<svg width="128pt" height="128pt" viewBox="0 0 128 128" version="1.1" xmlns="http://www.w3.org/2000/svg">
<g id="#000000ff">
<path fill="#000000" opacity="1.00" d=" M 49.90 46.42 C 54.36 46.53 58.85 46.21 63.31 46.57 C 69.13 47.46 72.78 54.26 70.65 59.68 C 69.65 63.04 66.54 65.23 63.23 65.95 C 66.64 69.70 69.67 73.77 73.12 77.48 C 71.12 77.50 69.13 77.50 67.13 77.51 C 63.47 72.97 59.53 68.62 56.11 63.90 C 56.06 63.32 55.95 62.17 55.90 61.59 C 59.15 61.33 63.37 62.58 65.65 59.52 C 67.95 56.78 66.28 52.08 62.77 51.40 C 59.97 51.00 57.14 51.25 54.32 51.25 C 54.42 60.00 54.30 68.75 54.41 77.50 C 52.91 77.49 51.40 77.49 49.90 77.50 C 49.83 67.14 49.84 56.78 49.90 46.42 Z" />
<path fill="#000000" opacity="1.00" d=" M 71.21 46.46 C 78.95 46.40 86.70 46.43 94.45 46.44 C 94.43 48.04 94.42 49.63 94.42 51.23 C 91.39 51.19 88.37 51.21 85.34 51.24 C 85.45 57.82 85.35 64.39 85.42 70.96 C 85.46 73.21 84.63 75.35 84.12 77.51 C 83.29 77.51 81.62 77.50 80.79 77.49 C 80.86 68.75 80.71 60.00 80.88 51.26 C 77.68 51.21 74.48 51.19 71.28 51.21 C 71.26 49.63 71.24 48.04 71.21 46.46 Z" />
<path fill="#000000" opacity="1.00" d=" M 0.08 46.65 C 1.75 46.65 3.42 46.65 5.09 46.64 C 8.29 54.20 11.04 61.96 14.31 69.49 C 17.46 61.87 20.31 54.12 23.63 46.57 C 25.21 46.61 26.80 46.63 28.38 46.65 C 24.14 56.89 20.15 67.24 15.91 77.49 C 15.10 77.51 13.49 77.54 12.68 77.56 C 8.33 67.32 4.48 56.87 0.08 46.65 Z" />
<path fill="#000000" opacity="1.00" d=" M 29.15 46.70 C 35.40 46.60 41.65 46.63 47.90 46.67 C 47.88 48.19 47.86 49.70 47.84 51.21 C 43.11 51.22 38.38 51.20 33.65 51.21 C 33.65 54.05 33.65 56.89 33.65 59.74 C 38.36 59.79 43.06 59.61 47.76 59.85 C 47.67 61.33 47.61 62.81 47.58 64.30 C 42.93 64.22 38.29 64.26 33.65 64.25 C 33.65 67.09 33.65 69.93 33.64 72.77 C 38.38 72.79 43.11 72.76 47.84 72.79 C 47.87 74.34 47.90 75.89 47.92 77.45 C 41.63 77.53 35.33 77.54 29.03 77.44 C 29.29 67.20 29.08 56.94 29.15 46.70 Z" />
<path fill="#000000" opacity="1.00" d=" M 95.77 46.61 C 99.13 46.63 102.49 46.64 105.85 46.68 C 107.91 49.55 110.02 52.39 112.02 55.31 C 114.01 52.38 116.10 49.52 118.19 46.65 C 121.45 46.66 124.72 46.61 127.99 46.65 C 120.66 57.05 113.14 67.32 105.70 77.65 C 103.59 77.64 101.48 77.65 99.36 77.67 C 99.08 76.40 98.79 75.13 98.51 73.87 C 101.46 70.02 104.17 66.00 107.17 62.19 C 103.24 57.09 99.74 51.68 95.77 46.61 Z" />
<path fill="#000000" opacity="1.00" d=" M 114.24 72.15 C 115.98 69.92 117.64 67.64 119.21 65.29 C 122.11 69.29 125.02 73.29 128.00 77.23 L 128.00 77.63 C 124.78 77.65 121.55 77.64 118.33 77.64 C 116.94 75.83 115.58 73.99 114.24 72.15 Z" />
<path fill="#000000" opacity="1.00" d=" M 87.82 78.90 C 86.21 75.92 89.17 73.14 91.92 72.53 C 95.04 73.09 97.62 76.69 95.57 79.60 C 93.93 82.65 88.80 82.31 87.82 78.90 Z" />
</g>
</svg>
