<?xml version="1.0" encoding="UTF-8" ?>
<!DOCTYPE svg PUBLIC "-//W3C//DTD SVG 1.1//EN" "http://www.w3.org/Graphics/SVG/1.1/DTD/svg11.dtd">
<svg width="128pt" height="128pt" viewBox="0 0 128 128" version="1.1" xmlns="http://www.w3.org/2000/svg">
<g id="#000000ff">
<path fill="#000000" opacity="1.00" d=" M 47.22 51.82 C 62.49 36.67 77.66 21.42 92.87 6.22 C 102.39 10.15 111.95 13.98 121.56 17.69 C 121.67 48.41 121.52 79.14 121.63 109.86 C 112.14 114.05 102.18 117.19 92.89 121.80 C 77.82 106.35 62.52 91.07 47.09 75.98 C 37.57 83.71 27.58 90.86 17.97 98.47 C 14.11 96.49 10.20 94.62 6.36 92.60 C 6.44 73.44 6.42 54.29 6.37 35.14 C 10.20 33.09 14.13 31.24 17.99 29.26 C 27.64 36.90 37.62 44.12 47.22 51.82 M 62.19 63.92 C 72.55 71.59 82.58 79.69 92.84 87.50 C 92.81 71.76 92.56 56.01 92.97 40.28 C 82.56 47.97 72.50 56.12 62.19 63.92 M 17.81 46.52 C 17.92 58.09 17.91 69.66 17.82 81.22 C 23.68 75.48 29.34 69.54 35.30 63.90 C 29.39 58.19 23.68 52.27 17.81 46.52 Z" />
</g>
</svg>
